<svg xmlns="http://www.w3.org/2000/svg" width="1175.55" height="448">
  <defs>
    <clipPath id="a">
      <circle cx="192" cy="224" r="96" fill="none"/>
    </clipPath>
  </defs>
  <g fill="none">
    <path d="M0 0h1175.55v448H0z"/>
    <g clip-path="url(#a)">
      <path fill="#ff8a65" d="M96 128h192v192H96z"/>
      <path d="M208.333 233.333h-3.686l-1.307-1.26c4.573-5.32 7.327-12.226 7.327-19.74 0-16.753-13.58-30.333-30.334-30.333C163.58 182 150 195.58 150 212.333c0 16.754 13.58 30.334 30.333 30.334 7.514 0 14.42-2.754 19.74-7.327l1.26 1.307v3.686l23.334 23.287 6.953-6.953zm-28 0c-11.62 0-21-9.38-21-21s9.38-21 21-21 21 9.38 21 21-9.38 21-21 21z" fill="#fff" fill-rule="evenodd"/>
    </g>
    <path d="M349.05 272H336l34.56-91.65h13.31L418.43 272h-13.06l-8.83-24.83h-38.53zm27.91-77.18l-14.98 41.34h30.46l-14.97-41.34zm80.89 79.23c-4.78 0-9.067-1.023-12.86-3.07-3.8-2.053-6.637-4.613-8.51-7.68h-.52l.52 8.7v27.65H424.7v-90.37h11.26v8.7h.52c1.873-3.067 4.71-5.627 8.51-7.68 3.793-2.047 8.08-3.07 12.86-3.07 8.107 0 15.103 3.2 20.99 9.6 5.893 6.4 8.84 14.337 8.84 23.81 0 9.473-2.947 17.41-8.84 23.81-5.887 6.4-12.883 9.6-20.99 9.6zm-1.92-10.75c5.46 0 10.153-2.07 14.08-6.21 3.927-4.14 5.89-9.623 5.89-16.45s-1.963-12.31-5.89-16.45c-3.927-4.14-8.62-6.21-14.08-6.21-5.547 0-10.26 2.05-14.14 6.15-3.887 4.093-5.83 9.597-5.83 16.51 0 6.913 1.943 12.417 5.83 16.51 3.88 4.1 8.593 6.15 14.14 6.15zm71.94 10.75c-4.78 0-9.07-1.023-12.87-3.07-3.793-2.053-6.63-4.613-8.51-7.68h-.51l.51 8.7v27.65h-11.77v-90.37h11.26v8.7h.51c1.88-3.067 4.717-5.627 8.51-7.68 3.8-2.047 8.09-3.07 12.87-3.07 8.107 0 15.103 3.2 20.99 9.6 5.887 6.4 8.83 14.337 8.83 23.81 0 9.473-2.943 17.41-8.83 23.81-5.887 6.4-12.883 9.6-20.99 9.6zm-1.92-10.75c5.46 0 10.153-2.07 14.08-6.21 3.927-4.14 5.89-9.623 5.89-16.45s-1.963-12.31-5.89-16.45c-3.927-4.14-8.62-6.21-14.08-6.21-5.547 0-10.263 2.05-14.15 6.15-3.88 4.093-5.82 9.597-5.82 16.51 0 6.913 1.94 12.417 5.82 16.51 3.887 4.1 8.603 6.15 14.15 6.15zm84.48 8.7h-11.78v-91.65h11.78zm13.82-62.72h11.27v8.7h.51c1.707-2.987 4.393-5.523 8.06-7.61 3.673-2.093 7.6-3.14 11.78-3.14 7.767 0 13.697 2.39 17.79 7.17 4.093 4.78 6.14 11.18 6.14 19.2V272h-11.77v-36.61c0-11.607-5.163-17.41-15.49-17.41-4.867 0-8.833 1.943-11.9 5.83-3.073 3.88-4.61 8.38-4.61 13.5V272h-11.78zm94.34 64.77c-8.107 0-15.103-3.2-20.99-9.6-5.893-6.4-8.84-14.337-8.84-23.81 0-9.473 2.947-17.41 8.84-23.81 5.887-6.4 12.883-9.6 20.99-9.6 4.78 0 9.067 1.023 12.86 3.07 3.8 2.053 6.637 4.613 8.51 7.68h.52l-.52-8.7v-28.93h11.78V272h-11.26v-8.7h-.52c-1.873 3.067-4.71 5.627-8.51 7.68-3.793 2.047-8.08 3.07-12.86 3.07zm1.92-10.75c5.547 0 10.26-2.05 14.14-6.15 3.887-4.093 5.83-9.597 5.83-16.51 0-6.913-1.943-12.417-5.83-16.51-3.88-4.1-8.593-6.15-14.14-6.15-5.46 0-10.153 2.07-14.08 6.21-3.927 4.14-5.89 9.623-5.89 16.45s1.963 12.31 5.89 16.45c3.927 4.14 8.62 6.21 14.08 6.21zm73.34 10.75c-9.473 0-17.173-3.157-23.1-9.47-5.933-6.32-8.9-14.3-8.9-23.94 0-9.133 2.88-16.983 8.64-23.55 5.76-6.573 13.12-9.86 22.08-9.86 9.3 0 16.747 3.03 22.34 9.09 5.587 6.06 8.38 14.167 8.38 24.32l-.13 2.18h-49.53c.34 6.313 2.45 11.303 6.33 14.97 3.887 3.673 8.433 5.51 13.64 5.51 8.447 0 14.163-3.587 17.15-10.76l10.49 4.36c-2.047 4.86-5.417 8.933-10.11 12.22-4.693 3.287-10.453 4.93-17.28 4.93zm-19.45-40.96h36.35c-.26-3.587-1.903-7-4.93-10.24-3.027-3.247-7.527-4.87-13.5-4.87-4.353 0-8.13 1.367-11.33 4.1-3.2 2.733-5.397 6.403-6.59 11.01zm88.19 7.04l22.4 31.87h-13.83l-15.48-23.17L840.44 272h-13.82l22.14-31.87-21.63-30.85h13.31l15.49 22.14 14.72-22.14h13.83zm43.39-46.59c-1.62 1.62-3.583 2.43-5.89 2.43-2.3 0-4.263-.81-5.89-2.43-1.62-1.627-2.43-3.59-2.43-5.89 0-2.307.81-4.27 2.43-5.89 1.627-1.62 3.59-2.43 5.89-2.43 2.307 0 4.27.81 5.89 2.43s2.43 3.583 2.43 5.89c0 2.3-.81 4.263-2.43 5.89zm0 15.74V272H894.2v-62.72zm14.08 0h11.26v8.7h.52c1.707-2.987 4.393-5.523 8.06-7.61 3.667-2.093 7.593-3.14 11.78-3.14 7.76 0 13.69 2.39 17.79 7.17 4.093 4.78 6.14 11.18 6.14 19.2V272h-11.77v-36.61c0-11.607-5.163-17.41-15.49-17.41-4.867 0-8.837 1.943-11.91 5.83-3.067 3.88-4.6 8.38-4.6 13.5V272h-11.78zm95.36 92.42c-7.427 0-13.487-1.857-18.18-5.57s-8.063-7.96-10.11-12.74l10.75-4.48c1.2 3.413 3.4 6.273 6.6 8.58 3.2 2.3 6.847 3.45 10.94 3.45 6.487 0 11.587-1.94 15.3-5.82 3.707-3.88 5.56-9.15 5.56-15.81v-6.01h-.51c-2.047 3.067-4.947 5.627-8.7 7.68-3.753 2.047-7.977 3.07-12.67 3.07-8.107 0-15.107-3.2-21-9.6-5.887-6.4-8.83-14.337-8.83-23.81 0-9.473 2.943-17.41 8.83-23.81 5.893-6.4 12.893-9.6 21-9.6 4.693 0 8.917 1.023 12.67 3.07 3.753 2.053 6.653 4.613 8.7 7.68h.51v-8.7h11.27v59.52c0 10.753-3.117 18.923-9.35 24.51-6.227 5.593-13.82 8.39-22.78 8.39zm.9-38.4c5.547 0 10.26-2.05 14.14-6.15 3.88-4.093 5.82-9.597 5.82-16.51 0-6.913-1.94-12.417-5.82-16.51-3.88-4.1-8.593-6.15-14.14-6.15-5.467 0-10.16 2.07-14.08 6.21-3.927 4.14-5.89 9.623-5.89 16.45s1.963 12.31 5.89 16.45c3.92 4.14 8.613 6.21 14.08 6.21z" fill-opacity=".54" fill="#000"/>
  </g>
</svg>
