<svg xmlns="http://www.w3.org/2000/svg" width="1347.2" height="448">
  <defs>
    <clipPath id="a">
      <circle cx="192" cy="224" r="96" fill="none"/>
    </clipPath>
  </defs>
  <g fill="none">
    <path d="M0 0h1347.2v448H0z"/>
    <g clip-path="url(#a)">
      <path fill="#ffa000" d="M96 128h192v192H96z"/>
      <path d="M161.667 256.667a7 7 0 0 1 0-14h4.666a7 7 0 0 0 0-14H157a7 7 0 0 1 0-14h16.333a4.667 4.667 0 0 0 0-9.334 7 7 0 0 1 0-14h69.86c2.926 0 5.143 2.744 4.639 5.745l-9.333 55.533a4.765 4.765 0 0 1-4.639 4.056zm20.276-9.334h48.006l7.822-46.666h-48.104zm42.08-7h-33.824l5.404-32.666H229.5zM143 256.667a7 7 0 1 1 0-14 7 7 0 0 1 0 14z" fill="#fff" fill-rule="evenodd"/>
    </g>
    <path d="M349.05 272H336l34.56-91.65h13.31L418.43 272h-13.06l-8.83-24.83h-38.53zm27.91-77.18l-14.98 41.34h30.46l-14.97-41.34zm80.89 79.23c-4.78 0-9.067-1.023-12.86-3.07-3.8-2.053-6.637-4.613-8.51-7.68h-.52l.52 8.7v27.65H424.7v-90.37h11.26v8.7h.52c1.873-3.067 4.71-5.627 8.51-7.68 3.793-2.047 8.08-3.07 12.86-3.07 8.107 0 15.103 3.2 20.99 9.6 5.893 6.4 8.84 14.337 8.84 23.81 0 9.473-2.947 17.41-8.84 23.81-5.887 6.4-12.883 9.6-20.99 9.6zm-1.92-10.75c5.46 0 10.153-2.07 14.08-6.21 3.927-4.14 5.89-9.623 5.89-16.45s-1.963-12.31-5.89-16.45c-3.927-4.14-8.62-6.21-14.08-6.21-5.547 0-10.26 2.05-14.14 6.15-3.887 4.093-5.83 9.597-5.83 16.51 0 6.913 1.943 12.417 5.83 16.51 3.88 4.1 8.593 6.15 14.14 6.15zm71.94 10.75c-4.78 0-9.07-1.023-12.87-3.07-3.793-2.053-6.63-4.613-8.51-7.68h-.51l.51 8.7v27.65h-11.77v-90.37h11.26v8.7h.51c1.88-3.067 4.717-5.627 8.51-7.68 3.8-2.047 8.09-3.07 12.87-3.07 8.107 0 15.103 3.2 20.99 9.6 5.887 6.4 8.83 14.337 8.83 23.81 0 9.473-2.943 17.41-8.83 23.81-5.887 6.4-12.883 9.6-20.99 9.6zm-1.92-10.75c5.46 0 10.153-2.07 14.08-6.21 3.927-4.14 5.89-9.623 5.89-16.45s-1.963-12.31-5.89-16.45c-3.927-4.14-8.62-6.21-14.08-6.21-5.547 0-10.263 2.05-14.15 6.15-3.88 4.093-5.82 9.597-5.82 16.51 0 6.913 1.94 12.417 5.82 16.51 3.887 4.1 8.603 6.15 14.15 6.15zm100.73 8.7h-28.03v-91.65h28.03c14.08 0 25.347 4.247 33.8 12.74 8.447 8.487 12.67 19.517 12.67 33.09 0 13.567-4.223 24.593-12.67 33.08-8.453 8.493-19.72 12.74-33.8 12.74zm-16.25-80.38v69.12h16.25c10.587 0 18.973-3.03 25.16-9.09 6.187-6.06 9.28-14.55 9.28-25.47 0-10.84-3.093-19.31-9.28-25.41-6.187-6.1-14.573-9.15-25.16-9.15zm86.14 1.92c-1.62 1.62-3.583 2.43-5.89 2.43-2.3 0-4.26-.81-5.88-2.43-1.627-1.627-2.44-3.59-2.44-5.89 0-2.307.813-4.27 2.44-5.89 1.62-1.62 3.58-2.43 5.88-2.43 2.307 0 4.27.81 5.89 2.43s2.43 3.583 2.43 5.89c0 2.3-.81 4.263-2.43 5.89zm0 15.74V272H684.8v-62.72zm36.74 64.77c-7 0-12.783-1.707-17.35-5.12-4.56-3.413-7.907-7.68-10.04-12.8l10.49-4.35c3.327 7.847 9.003 11.77 17.03 11.77 3.667 0 6.673-.81 9.02-2.43 2.347-1.62 3.52-3.753 3.52-6.4 0-4.093-2.86-6.867-8.58-8.32l-12.67-3.07c-4.007-1.027-7.803-2.97-11.39-5.83-3.587-2.853-5.38-6.713-5.38-11.58 0-5.547 2.453-10.047 7.36-13.5 4.907-3.46 10.733-5.19 17.48-5.19 5.547 0 10.493 1.26 14.84 3.78 4.353 2.513 7.47 6.117 9.35 10.81l-10.24 4.23c-2.307-5.547-7.087-8.32-14.34-8.32-3.5 0-6.443.723-8.83 2.17-2.387 1.453-3.58 3.417-3.58 5.89 0 3.587 2.773 6.02 8.32 7.3l12.41 2.94c5.887 1.367 10.24 3.713 13.06 7.04 2.813 3.327 4.22 7.083 4.22 11.27 0 5.627-2.303 10.32-6.91 14.08-4.607 3.753-10.537 5.63-17.79 5.63zm60.16-1.03c-6.573 0-11.587-1.747-15.04-5.24-3.46-3.5-5.19-8.45-5.19-14.85v-32.9h-11v-10.75h11v-19.2h11.78v19.2h15.36v10.75h-15.36v32c0 6.827 2.817 10.24 8.45 10.24 2.133 0 3.923-.34 5.37-1.02l4.1 10.11c-2.56 1.107-5.717 1.66-9.47 1.66zm28.67-35.32V272h-11.78v-62.72h11.27v10.24h.51c1.193-3.413 3.647-6.23 7.36-8.45 3.713-2.22 7.32-3.33 10.82-3.33 3.493 0 6.437.513 8.83 1.54l-4.48 11.01c-1.54-.6-3.63-.9-6.27-.9-4.267 0-8.043 1.687-11.33 5.06-3.287 3.367-4.93 7.783-4.93 13.25zm46.21-44.16c-1.62 1.62-3.583 2.43-5.89 2.43-2.307 0-4.27-.81-5.89-2.43-1.62-1.627-2.43-3.59-2.43-5.89 0-2.307.81-4.27 2.43-5.89s3.583-2.43 5.89-2.43c2.307 0 4.27.81 5.89 2.43s2.43 3.583 2.43 5.89c0 2.3-.81 4.263-2.43 5.89zm0 15.74V272h-11.78v-62.72zm45.95 64.77c-4.78 0-9.067-1.023-12.86-3.07-3.8-2.053-6.64-4.613-8.52-7.68h-.51v8.7h-11.26v-91.65h11.77v28.93l-.51 8.7h.51c1.88-3.067 4.72-5.627 8.52-7.68 3.793-2.047 8.08-3.07 12.86-3.07 8.107 0 15.103 3.2 20.99 9.6 5.887 6.4 8.83 14.337 8.83 23.81 0 9.473-2.943 17.41-8.83 23.81-5.887 6.4-12.883 9.6-20.99 9.6zm-1.92-10.75c5.46 0 10.153-2.07 14.08-6.21 3.927-4.14 5.89-9.623 5.89-16.45s-1.963-12.31-5.89-16.45c-3.927-4.14-8.62-6.21-14.08-6.21-5.547 0-10.26 2.05-14.14 6.15-3.887 4.093-5.83 9.597-5.83 16.51 0 6.913 1.943 12.417 5.83 16.51 3.88 4.1 8.593 6.15 14.14 6.15zm96.9-54.02V272h-11.27v-8.7h-.51c-1.793 2.987-4.523 5.523-8.19 7.61-3.673 2.093-7.557 3.14-11.65 3.14-7.853 0-13.807-2.39-17.86-7.17-4.053-4.78-6.08-11.18-6.08-19.2v-38.4h11.78v36.48c0 11.693 5.163 17.54 15.49 17.54 4.86 0 8.827-1.963 11.9-5.89 3.073-3.927 4.61-8.45 4.61-13.57v-34.56zm40.83 63.74c-6.573 0-11.587-1.747-15.04-5.24-3.46-3.5-5.19-8.45-5.19-14.85v-32.9h-11v-10.75h11v-19.2h11.78v19.2h15.36v10.75h-15.36v32c0 6.827 2.817 10.24 8.45 10.24 2.133 0 3.923-.34 5.37-1.02l4.1 10.11c-2.56 1.107-5.717 1.66-9.47 1.66zm29.69-79.48c-1.62 1.62-3.58 2.43-5.88 2.43-2.307 0-4.27-.81-5.89-2.43-1.62-1.627-2.43-3.59-2.43-5.89 0-2.307.81-4.27 2.43-5.89s3.583-2.43 5.89-2.43c2.3 0 4.26.81 5.88 2.43 1.627 1.62 2.44 3.583 2.44 5.89 0 2.3-.813 4.263-2.44 5.89zm0 15.74V272h-11.77v-62.72zm18.95 7.49c6.06-6.36 13.783-9.54 23.17-9.54 9.387 0 17.107 3.18 23.16 9.54 6.06 6.353 9.09 14.31 9.09 23.87s-3.03 17.517-9.09 23.87c-6.053 6.36-13.773 9.54-23.16 9.54s-17.11-3.18-23.17-9.54c-6.06-6.353-9.09-14.31-9.09-23.87s3.03-17.517 9.09-23.87zm8.77 40.32c4.053 4.14 8.853 6.21 14.4 6.21 5.547 0 10.347-2.07 14.4-6.21 4.053-4.14 6.08-9.623 6.08-16.45s-2.027-12.31-6.08-16.45c-4.053-4.14-8.853-6.21-14.4-6.21-5.547 0-10.347 2.07-14.4 6.21-4.053 4.14-6.08 9.623-6.08 16.45s2.027 12.31 6.08 16.45zm56.12-47.81h11.27v8.7h.51c1.707-2.987 4.393-5.523 8.06-7.61 3.673-2.093 7.6-3.14 11.78-3.14 7.767 0 13.697 2.39 17.79 7.17 4.1 4.78 6.15 11.18 6.15 19.2V272h-11.78v-36.61c0-11.607-5.163-17.41-15.49-17.41-4.86 0-8.827 1.943-11.9 5.83-3.073 3.88-4.61 8.38-4.61 13.5V272h-11.78z" fill-opacity=".54" fill="#000"/>
  </g>
</svg>
