<svg xmlns="http://www.w3.org/2000/svg" width="1262.59" height="448">
  <defs>
    <clipPath id="a">
      <circle cx="192" cy="224" r="96" fill="none"/>
    </clipPath>
  </defs>
  <g fill="none">
    <path d="M0 0h1262.59v448H0z"/>
    <g clip-path="url(#a)">
      <path fill="#ffca28" d="M96 128h192v192H96z"/>
      <path d="M210.667 219.333c7.746 0 13.953-6.253 13.953-14 0-7.746-6.207-14-13.953-14-7.747 0-14 6.254-14 14 0 7.747 6.253 14 14 14zm-37.334 0c7.747 0 13.954-6.253 13.954-14 0-7.746-6.207-14-13.954-14-7.746 0-14 6.254-14 14 0 7.747 6.254 14 14 14zm0 9.334c-10.873 0-32.666 5.46-32.666 16.333v11.667H206V245c0-10.873-21.793-16.333-32.667-16.333zm37.334 0c-1.354 0-2.894.093-4.527.233 5.413 3.92 9.193 9.193 9.193 16.1v11.667h28V245c0-10.873-21.793-16.333-32.666-16.333z" fill="#fff" fill-rule="evenodd"/>
    </g>
    <path d="M349.05 272H336l34.56-91.65h13.31L418.43 272h-13.06l-8.83-24.83h-38.53zm27.91-77.18l-14.98 41.34h30.46l-14.97-41.34zm103.29 14.46V272h-11.26v-8.7h-.51c-1.793 2.987-4.527 5.523-8.2 7.61-3.667 2.093-7.547 3.14-11.64 3.14-7.853 0-13.807-2.39-17.86-7.17-4.053-4.78-6.08-11.18-6.08-19.2v-38.4h11.78v36.48c0 11.693 5.16 17.54 15.48 17.54 4.867 0 8.837-1.963 11.91-5.89 3.073-3.927 4.61-8.45 4.61-13.57v-34.56zm40.83 63.74c-6.567 0-11.58-1.747-15.04-5.24-3.453-3.5-5.18-8.45-5.18-14.85v-32.9h-11.01v-10.75h11.01v-19.2h11.78v19.2H528v10.75h-15.36v32c0 6.827 2.813 10.24 8.44 10.24 2.133 0 3.927-.34 5.38-1.02l4.1 10.11c-2.56 1.107-5.72 1.66-9.48 1.66zm16.9-92.67h11.78v28.93l-.52 8.7h.52c1.707-2.987 4.393-5.523 8.06-7.61 3.667-2.093 7.593-3.14 11.78-3.14 7.76 0 13.69 2.39 17.79 7.17 4.093 4.78 6.14 11.18 6.14 19.2V272h-11.77v-36.61c0-11.607-5.163-17.41-15.49-17.41-4.867 0-8.837 1.943-11.91 5.83-3.067 3.88-4.6 8.38-4.6 13.5V272h-11.78zm96.51 93.7c-9.473 0-17.173-3.157-23.1-9.47-5.933-6.32-8.9-14.3-8.9-23.94 0-9.133 2.88-16.983 8.64-23.55 5.76-6.573 13.12-9.86 22.08-9.86 9.3 0 16.747 3.03 22.34 9.09 5.587 6.06 8.38 14.167 8.38 24.32l-.13 2.18h-49.53c.34 6.313 2.45 11.303 6.33 14.97 3.887 3.673 8.433 5.51 13.64 5.51 8.447 0 14.163-3.587 17.15-10.76l10.49 4.36c-2.047 4.86-5.417 8.933-10.11 12.22-4.693 3.287-10.453 4.93-17.28 4.93zm-19.45-40.96h36.35c-.26-3.587-1.903-7-4.93-10.24-3.027-3.247-7.527-4.87-13.5-4.87-4.353 0-8.13 1.367-11.33 4.1-3.2 2.733-5.397 6.403-6.59 11.01zm58.36-23.81h11.27v8.7h.51c1.707-2.987 4.393-5.523 8.06-7.61 3.673-2.093 7.6-3.14 11.78-3.14 7.767 0 13.697 2.39 17.79 7.17 4.1 4.78 6.15 11.18 6.15 19.2V272h-11.78v-36.61c0-11.607-5.163-17.41-15.49-17.41-4.86 0-8.827 1.943-11.9 5.83-3.073 3.88-4.61 8.38-4.61 13.5V272H673.4zm93.32 63.74c-6.573 0-11.587-1.747-15.04-5.24-3.46-3.5-5.19-8.45-5.19-14.85v-32.9h-11.01v-10.75h11.01v-19.2h11.78v19.2h15.36v10.75h-15.36v32c0 6.827 2.817 10.24 8.45 10.24 2.133 0 3.923-.34 5.37-1.02l4.1 10.11c-2.56 1.107-5.717 1.66-9.47 1.66zm29.69-79.48c-1.62 1.62-3.583 2.43-5.89 2.43-2.3 0-4.26-.81-5.88-2.43-1.627-1.627-2.44-3.59-2.44-5.89 0-2.307.813-4.27 2.44-5.89 1.62-1.62 3.58-2.43 5.88-2.43 2.307 0 4.27.81 5.89 2.43s2.43 3.583 2.43 5.89c0 2.3-.81 4.263-2.43 5.89zm0 15.74V272h-11.77v-62.72zm42.11 64.77c-9.387 0-17.107-3.18-23.16-9.54-6.06-6.353-9.09-14.31-9.09-23.87s3.03-17.517 9.09-23.87c6.053-6.36 13.773-9.54 23.16-9.54 7 0 12.803 1.707 17.41 5.12 4.607 3.413 7.977 7.723 10.11 12.93l-10.75 4.48c-3.24-7.853-9.083-11.78-17.53-11.78-5.207 0-9.793 2.133-13.76 6.4-3.973 4.267-5.96 9.687-5.96 16.26 0 6.573 1.987 11.993 5.96 16.26 3.967 4.267 8.553 6.4 13.76 6.4 8.787 0 14.843-3.927 18.17-11.78l10.5 4.48c-2.133 5.12-5.57 9.407-10.31 12.86-4.733 3.46-10.6 5.19-17.6 5.19zm57.35 0c-6.66 0-12.23-1.92-16.71-5.76s-6.72-8.917-6.72-15.23c0-6.827 2.647-12.183 7.94-16.07 5.293-3.88 11.82-5.82 19.58-5.82 6.913 0 12.59 1.28 17.03 3.84v-1.79c0-4.613-1.58-8.307-4.74-11.08-3.153-2.773-7.037-4.16-11.65-4.16-3.413 0-6.507.813-9.28 2.44-2.773 1.62-4.67 3.837-5.69 6.65l-10.75-4.61c1.447-3.753 4.303-7.23 8.57-10.43 4.267-3.2 9.9-4.8 16.9-4.8 8.02 0 14.677 2.347 19.97 7.04 5.287 4.693 7.93 11.307 7.93 19.84V272h-11.26v-8.7h-.51c-4.693 7.167-11.563 10.75-20.61 10.75zm1.92-10.75c4.86 0 9.277-1.813 13.25-5.44 3.967-3.627 5.95-7.917 5.95-12.87-3.327-2.727-8.32-4.09-14.98-4.09-5.713 0-10.023 1.237-12.93 3.71-2.9 2.473-4.35 5.373-4.35 8.7 0 3.073 1.323 5.507 3.97 7.3 2.647 1.793 5.677 2.69 9.09 2.69zm67.71 9.72c-6.573 0-11.587-1.747-15.04-5.24-3.453-3.5-5.18-8.45-5.18-14.85v-32.9h-11.01v-10.75h11.01v-19.2h11.77v19.2h15.36v10.75h-15.36v32c0 6.827 2.817 10.24 8.45 10.24 2.133 0 3.927-.34 5.38-1.02l4.09 10.11c-2.56 1.107-5.717 1.66-9.47 1.66zm29.7-79.48c-1.627 1.62-3.59 2.43-5.89 2.43-2.307 0-4.27-.81-5.89-2.43-1.62-1.627-2.43-3.59-2.43-5.89 0-2.307.81-4.27 2.43-5.89s3.583-2.43 5.89-2.43c2.3 0 4.263.81 5.89 2.43 1.62 1.62 2.43 3.583 2.43 5.89 0 2.3-.81 4.263-2.43 5.89zm0 15.74V272h-11.78v-62.72zm18.94 7.49c6.06-6.36 13.783-9.54 23.17-9.54 9.387 0 17.11 3.18 23.17 9.54 6.053 6.353 9.08 14.31 9.08 23.87s-3.027 17.517-9.08 23.87c-6.06 6.36-13.783 9.54-23.17 9.54-9.387 0-17.11-3.18-23.17-9.54-6.06-6.353-9.09-14.31-9.09-23.87s3.03-17.517 9.09-23.87zm8.77 40.32c4.053 4.14 8.853 6.21 14.4 6.21 5.547 0 10.347-2.07 14.4-6.21 4.053-4.14 6.08-9.623 6.08-16.45s-2.027-12.31-6.08-16.45c-4.053-4.14-8.853-6.21-14.4-6.21-5.547 0-10.347 2.07-14.4 6.21-4.053 4.14-6.08 9.623-6.08 16.45s2.027 12.31 6.08 16.45zm56.13-47.81h11.26v8.7h.51c1.707-2.987 4.397-5.523 8.07-7.61 3.667-2.093 7.59-3.14 11.77-3.14 7.767 0 13.697 2.39 17.79 7.17 4.1 4.78 6.15 11.18 6.15 19.2V272h-11.78v-36.61c0-11.607-5.163-17.41-15.49-17.41-4.86 0-8.827 1.943-11.9 5.83-3.073 3.88-4.61 8.38-4.61 13.5V272h-11.77z" fill-opacity=".54" fill="#000"/>
  </g>
</svg>
