<svg xmlns="http://www.w3.org/2000/svg" width="1345.79" height="448">
  <defs>
    <clipPath id="a">
      <circle cx="192" cy="224" r="96" fill="none"/>
    </clipPath>
  </defs>
  <g fill="none">
    <path d="M0 0h1345.79v448H0z"/>
    <g clip-path="url(#a)">
      <path fill="#ffca28" d="M96 128h192v192H96z"/>
      <path d="M229.366 246.195v-44.38l-15.717-15.718 9.888-9.893L243.333 196v50.26l-.032.019v5.735l-19.778 19.782-9.874-9.88zm-74.732-.014l15.717 15.722-9.888 9.893L140.667 252v-50.26l.032-.019v-5.735l19.778-19.782 9.874 9.88-15.717 15.721v44.38zm16.37-15.167a7.021 7.021 0 1 1 7.02-7.023 7.019 7.019 0 0 1-7.02 7.018zm20.991 0a7.021 7.021 0 1 1 7.019-7.023 7.019 7.019 0 0 1-7.019 7.018zm20.991 0a7.021 7.021 0 1 1 7.019-7.023 7.019 7.019 0 0 1-7.019 7.018z" fill="#fff" fill-rule="evenodd"/>
    </g>
    <path d="M383.61 274.05c-13.48 0-24.787-4.567-33.92-13.7-9.127-9.127-13.69-20.517-13.69-34.17 0-13.653 4.563-25.047 13.69-34.18 9.133-9.133 20.44-13.7 33.92-13.7 13.827 0 25.05 4.993 33.67 14.98l-8.2 7.94c-6.227-7.767-14.717-11.65-25.47-11.65-9.98 0-18.407 3.37-25.28 10.11-6.867 6.74-10.3 15.573-10.3 26.5 0 10.92 3.433 19.75 10.3 26.49 6.873 6.74 15.3 10.11 25.28 10.11 11.007 0 20.393-4.437 28.16-13.31l8.19 8.19c-4.18 5.04-9.427 9.03-15.74 11.97-6.313 2.947-13.183 4.42-20.61 4.42zm57.35-93.7V272h-11.78v-91.65zm18.56 36.42c6.053-6.36 13.773-9.54 23.16-9.54s17.11 3.18 23.17 9.54c6.06 6.353 9.09 14.31 9.09 23.87s-3.03 17.517-9.09 23.87c-6.06 6.36-13.783 9.54-23.17 9.54-9.387 0-17.107-3.18-23.16-9.54-6.06-6.353-9.09-14.31-9.09-23.87s3.03-17.517 9.09-23.87zm8.76 40.32c4.053 4.14 8.853 6.21 14.4 6.21 5.547 0 10.347-2.07 14.4-6.21 4.053-4.14 6.08-9.623 6.08-16.45s-2.027-12.31-6.08-16.45c-4.053-4.14-8.853-6.21-14.4-6.21-5.547 0-10.347 2.07-14.4 6.21-4.053 4.14-6.08 9.623-6.08 16.45s2.027 12.31 6.08 16.45zm111.17-47.81V272h-11.26v-8.7h-.51c-1.793 2.987-4.527 5.523-8.2 7.61-3.667 2.093-7.547 3.14-11.64 3.14-7.853 0-13.807-2.39-17.86-7.17-4.053-4.78-6.08-11.18-6.08-19.2v-38.4h11.78v36.48c0 11.693 5.16 17.54 15.48 17.54 4.867 0 8.837-1.963 11.91-5.89 3.073-3.927 4.61-8.45 4.61-13.57v-34.56zm39.3 64.77c-8.107 0-15.103-3.2-20.99-9.6-5.893-6.4-8.84-14.337-8.84-23.81 0-9.473 2.947-17.41 8.84-23.81 5.887-6.4 12.883-9.6 20.99-9.6 4.78 0 9.067 1.023 12.86 3.07 3.8 2.053 6.637 4.613 8.51 7.68h.52l-.52-8.7v-28.93h11.78V272h-11.26v-8.7h-.52c-1.873 3.067-4.71 5.627-8.51 7.68-3.793 2.047-8.08 3.07-12.86 3.07zm1.92-10.75c5.547 0 10.26-2.05 14.14-6.15 3.887-4.093 5.83-9.597 5.83-16.51 0-6.913-1.943-12.417-5.83-16.51-3.88-4.1-8.593-6.15-14.14-6.15-5.46 0-10.153 2.07-14.08 6.21-3.927 4.14-5.89 9.623-5.89 16.45s1.963 12.31 5.89 16.45c3.927 4.14 8.62 6.21 14.08 6.21zm87.55-30.6V272h-11.78v-91.65h53.51v11.27h-41.73v30.08h37.63v11zm105.47-23.42V272h-11.26v-8.7h-.51c-1.793 2.987-4.527 5.523-8.2 7.61-3.667 2.093-7.547 3.14-11.64 3.14-7.853 0-13.807-2.39-17.86-7.17-4.053-4.78-6.08-11.18-6.08-19.2v-38.4h11.78v36.48c0 11.693 5.16 17.54 15.48 17.54 4.867 0 8.837-1.963 11.91-5.89 3.073-3.927 4.61-8.45 4.61-13.57v-34.56zm14.34 0h11.26v8.7h.51c1.707-2.987 4.397-5.523 8.07-7.61 3.667-2.093 7.59-3.14 11.77-3.14 7.767 0 13.7 2.39 17.8 7.17 4.093 4.78 6.14 11.18 6.14 19.2V272H871.8v-36.61c0-11.607-5.16-17.41-15.48-17.41-4.867 0-8.837 1.943-11.91 5.83-3.073 3.88-4.61 8.38-4.61 13.5V272h-11.77zm96.77 64.77c-9.387 0-17.11-3.18-23.17-9.54-6.06-6.353-9.09-14.31-9.09-23.87s3.03-17.517 9.09-23.87c6.06-6.36 13.783-9.54 23.17-9.54 6.993 0 12.793 1.707 17.4 5.12 4.613 3.413 7.987 7.723 10.12 12.93l-10.76 4.48c-3.24-7.853-9.083-11.78-17.53-11.78-5.207 0-9.793 2.133-13.76 6.4-3.967 4.267-5.95 9.687-5.95 16.26 0 6.573 1.983 11.993 5.95 16.26 3.967 4.267 8.553 6.4 13.76 6.4 8.787 0 14.843-3.927 18.17-11.78l10.5 4.48c-2.133 5.12-5.567 9.407-10.3 12.86-4.74 3.46-10.607 5.19-17.6 5.19zm63.36-1.03c-6.573 0-11.587-1.747-15.04-5.24-3.46-3.5-5.19-8.45-5.19-14.85v-32.9h-11.01v-10.75h11.01v-19.2h11.78v19.2h15.36v10.75h-15.36v32c0 6.827 2.817 10.24 8.45 10.24 2.133 0 3.923-.34 5.37-1.02l4.1 10.11c-2.56 1.107-5.717 1.66-9.47 1.66zm29.69-79.48c-1.62 1.62-3.583 2.43-5.89 2.43-2.3 0-4.26-.81-5.88-2.43-1.627-1.627-2.44-3.59-2.44-5.89 0-2.307.813-4.27 2.44-5.89 1.62-1.62 3.58-2.43 5.88-2.43 2.307 0 4.27.81 5.89 2.43s2.43 3.583 2.43 5.89c0 2.3-.81 4.263-2.43 5.89zm0 15.74V272h-11.77v-62.72zm18.95 7.49c6.053-6.36 13.773-9.54 23.16-9.54s17.11 3.18 23.17 9.54c6.06 6.353 9.09 14.31 9.09 23.87s-3.03 17.517-9.09 23.87c-6.06 6.36-13.783 9.54-23.17 9.54-9.387 0-17.107-3.18-23.16-9.54-6.06-6.353-9.09-14.31-9.09-23.87s3.03-17.517 9.09-23.87zm8.76 40.32c4.053 4.14 8.853 6.21 14.4 6.21 5.547 0 10.347-2.07 14.4-6.21 4.053-4.14 6.08-9.623 6.08-16.45s-2.027-12.31-6.08-16.45c-4.053-4.14-8.853-6.21-14.4-6.21-5.547 0-10.347 2.07-14.4 6.21-4.053 4.14-6.08 9.623-6.08 16.45s2.027 12.31 6.08 16.45zm56.13-47.81h11.27v8.7h.51c1.707-2.987 4.393-5.523 8.06-7.61 3.673-2.093 7.6-3.14 11.78-3.14 7.767 0 13.697 2.39 17.79 7.17 4.093 4.78 6.14 11.18 6.14 19.2V272h-11.77v-36.61c0-11.607-5.163-17.41-15.49-17.41-4.867 0-8.833 1.943-11.9 5.83-3.073 3.88-4.61 8.38-4.61 13.5V272h-11.78zm91.39 64.77c-6.993 0-12.773-1.707-17.34-5.12-4.567-3.413-7.917-7.68-10.05-12.8l10.5-4.35c3.327 7.847 9 11.77 17.02 11.77 3.673 0 6.683-.81 9.03-2.43 2.347-1.62 3.52-3.753 3.52-6.4 0-4.093-2.86-6.867-8.58-8.32l-12.67-3.07c-4.013-1.027-7.81-2.97-11.39-5.83-3.587-2.853-5.38-6.713-5.38-11.58 0-5.547 2.453-10.047 7.36-13.5 4.907-3.46 10.73-5.19 17.47-5.19 5.547 0 10.497 1.26 14.85 3.78 4.353 2.513 7.467 6.117 9.34 10.81l-10.24 4.23c-2.3-5.547-7.077-8.32-14.33-8.32-3.5 0-6.443.723-8.83 2.17-2.393 1.453-3.59 3.417-3.59 5.89 0 3.587 2.773 6.02 8.32 7.3l12.42 2.94c5.887 1.367 10.237 3.713 13.05 7.04 2.82 3.327 4.23 7.083 4.23 11.27 0 5.627-2.303 10.32-6.91 14.08-4.613 3.753-10.547 5.63-17.8 5.63z" fill-opacity=".54" fill="#000"/>
  </g>
</svg>
