<svg xmlns="http://www.w3.org/2000/svg" width="1238.4" height="448">
  <defs>
    <clipPath id="a">
      <circle cx="192" cy="224" r="96" fill="none"/>
    </clipPath>
  </defs>
  <g fill="none">
    <path d="M0 0h1238.4v448H0z"/>
    <g clip-path="url(#a)">
      <path fill="#ffca28" d="M96 128h192v192H96z"/>
      <path d="M182.667 186.667h-28c-5.134 0-9.287 4.2-9.287 9.333l-.047 56c0 5.133 4.2 9.333 9.334 9.333h74.666c5.134 0 9.334-4.2 9.334-9.333v-46.667c0-5.133-4.2-9.333-9.334-9.333H192zm6.766 54.646L204.441 224l20.226 23.333H164l15.167-18.666z" fill="#fff" fill-rule="evenodd"/>
    </g>
    <path d="M383.61 274.05c-13.48 0-24.787-4.567-33.92-13.7-9.127-9.127-13.69-20.517-13.69-34.17 0-13.653 4.563-25.047 13.69-34.18 9.133-9.133 20.44-13.7 33.92-13.7 13.827 0 25.05 4.993 33.67 14.98l-8.2 7.94c-6.227-7.767-14.717-11.65-25.47-11.65-9.98 0-18.407 3.37-25.28 10.11-6.867 6.74-10.3 15.573-10.3 26.5 0 10.92 3.433 19.75 10.3 26.49 6.873 6.74 15.3 10.11 25.28 10.11 11.007 0 20.393-4.437 28.16-13.31l8.19 8.19c-4.18 5.04-9.427 9.03-15.74 11.97-6.313 2.947-13.183 4.42-20.61 4.42zm57.35-93.7V272h-11.78v-91.65zm18.56 36.42c6.053-6.36 13.773-9.54 23.16-9.54s17.11 3.18 23.17 9.54c6.06 6.353 9.09 14.31 9.09 23.87s-3.03 17.517-9.09 23.87c-6.06 6.36-13.783 9.54-23.17 9.54-9.387 0-17.107-3.18-23.16-9.54-6.06-6.353-9.09-14.31-9.09-23.87s3.03-17.517 9.09-23.87zm8.76 40.32c4.053 4.14 8.853 6.21 14.4 6.21 5.547 0 10.347-2.07 14.4-6.21 4.053-4.14 6.08-9.623 6.08-16.45s-2.027-12.31-6.08-16.45c-4.053-4.14-8.853-6.21-14.4-6.21-5.547 0-10.347 2.07-14.4 6.21-4.053 4.14-6.08 9.623-6.08 16.45s2.027 12.31 6.08 16.45zm111.17-47.81V272h-11.26v-8.7h-.51c-1.793 2.987-4.527 5.523-8.2 7.61-3.667 2.093-7.547 3.14-11.64 3.14-7.853 0-13.807-2.39-17.86-7.17-4.053-4.78-6.08-11.18-6.08-19.2v-38.4h11.78v36.48c0 11.693 5.16 17.54 15.48 17.54 4.867 0 8.837-1.963 11.91-5.89 3.073-3.927 4.61-8.45 4.61-13.57v-34.56zm39.3 64.77c-8.107 0-15.103-3.2-20.99-9.6-5.893-6.4-8.84-14.337-8.84-23.81 0-9.473 2.947-17.41 8.84-23.81 5.887-6.4 12.883-9.6 20.99-9.6 4.78 0 9.067 1.023 12.86 3.07 3.8 2.053 6.637 4.613 8.51 7.68h.52l-.52-8.7v-28.93h11.78V272h-11.26v-8.7h-.52c-1.873 3.067-4.71 5.627-8.51 7.68-3.793 2.047-8.08 3.07-12.86 3.07zm1.92-10.75c5.547 0 10.26-2.05 14.14-6.15 3.887-4.093 5.83-9.597 5.83-16.51 0-6.913-1.943-12.417-5.83-16.51-3.88-4.1-8.593-6.15-14.14-6.15-5.46 0-10.153 2.07-14.08 6.21-3.927 4.14-5.89 9.623-5.89 16.45s1.963 12.31 5.89 16.45c3.927 4.14 8.62 6.21 14.08 6.21zm97.79 10.75c-6.653 0-13.16-2.177-19.52-6.53-6.36-4.353-10.52-10.453-12.48-18.3l10.75-4.36c1.28 5.04 3.903 9.287 7.87 12.74 3.973 3.453 8.433 5.18 13.38 5.18 5.12 0 9.493-1.343 13.12-4.03 3.627-2.687 5.44-6.333 5.44-10.94 0-5.12-1.813-9.067-5.44-11.84-3.627-2.773-9.367-5.357-17.22-7.75-8.107-2.56-14.25-5.867-18.43-9.92s-6.27-9.237-6.27-15.55c0-6.567 2.603-12.283 7.81-17.15 5.207-4.867 11.99-7.3 20.35-7.3 7.767 0 14.08 1.943 18.94 5.83 4.867 3.88 8.027 8.123 9.48 12.73l-10.76 4.48c-.767-2.9-2.663-5.587-5.69-8.06-3.033-2.473-6.937-3.71-11.71-3.71-4.527 0-8.39 1.257-11.59 3.77-3.2 2.52-4.8 5.657-4.8 9.41 0 3.413 1.473 6.293 4.42 8.64 2.94 2.347 7.27 4.46 12.99 6.34 4.52 1.447 8.297 2.853 11.33 4.22 3.027 1.367 6.097 3.18 9.21 5.44 3.12 2.26 5.467 5.077 7.04 8.45 1.58 3.373 2.37 7.277 2.37 11.71 0 4.44-.917 8.41-2.75 11.91-1.833 3.493-4.267 6.267-7.3 8.32a36.24 36.24 0 0 1-9.79 4.67 36.674 36.674 0 0 1-10.75 1.6zm66.18-1.03c-6.573 0-11.587-1.747-15.04-5.24-3.46-3.5-5.19-8.45-5.19-14.85v-32.9H753.4v-10.75h11.01v-19.2h11.78v19.2h15.36v10.75h-15.36v32c0 6.827 2.817 10.24 8.45 10.24 2.133 0 3.923-.34 5.37-1.02l4.1 10.11c-2.56 1.107-5.717 1.66-9.47 1.66zm21.76-56.25c6.053-6.36 13.773-9.54 23.16-9.54s17.11 3.18 23.17 9.54c6.06 6.353 9.09 14.31 9.09 23.87s-3.03 17.517-9.09 23.87c-6.06 6.36-13.783 9.54-23.17 9.54-9.387 0-17.107-3.18-23.16-9.54-6.06-6.353-9.09-14.31-9.09-23.87s3.03-17.517 9.09-23.87zm8.76 40.32c4.053 4.14 8.853 6.21 14.4 6.21 5.547 0 10.347-2.07 14.4-6.21 4.053-4.14 6.08-9.623 6.08-16.45s-2.027-12.31-6.08-16.45c-4.053-4.14-8.853-6.21-14.4-6.21-5.547 0-10.347 2.07-14.4 6.21-4.053 4.14-6.08 9.623-6.08 16.45s2.027 12.31 6.08 16.45zm67.91-19.39V272h-11.78v-62.72h11.27v10.24h.51c1.193-3.413 3.647-6.23 7.36-8.45 3.713-2.22 7.317-3.33 10.81-3.33 3.5 0 6.447.513 8.84 1.54l-4.48 11.01c-1.54-.6-3.633-.9-6.28-.9-4.267 0-8.04 1.687-11.32 5.06-3.287 3.367-4.93 7.783-4.93 13.25zm51.97 36.35c-6.66 0-12.23-1.92-16.71-5.76s-6.72-8.917-6.72-15.23c0-6.827 2.647-12.183 7.94-16.07 5.287-3.88 11.813-5.82 19.58-5.82 6.913 0 12.59 1.28 17.03 3.84v-1.79c0-4.613-1.58-8.307-4.74-11.08-3.16-2.773-7.043-4.16-11.65-4.16-3.413 0-6.507.813-9.28 2.44-2.773 1.62-4.67 3.837-5.69 6.65l-10.76-4.61c1.453-3.753 4.313-7.23 8.58-10.43 4.267-3.2 9.9-4.8 16.9-4.8 8.02 0 14.673 2.347 19.96 7.04 5.293 4.693 7.94 11.307 7.94 19.84V272h-11.26v-8.7h-.52c-4.693 7.167-11.56 10.75-20.6 10.75zm1.92-10.75c4.86 0 9.273-1.813 13.24-5.44 3.973-3.627 5.96-7.917 5.96-12.87-3.333-2.727-8.327-4.09-14.98-4.09-5.72 0-10.03 1.237-12.93 3.71-2.9 2.473-4.35 5.373-4.35 8.7 0 3.073 1.323 5.507 3.97 7.3 2.647 1.793 5.677 2.69 9.09 2.69zm70.4 38.4c-7.427 0-13.487-1.857-18.18-5.57s-8.063-7.96-10.11-12.74l10.75-4.48c1.193 3.413 3.39 6.273 6.59 8.58 3.2 2.3 6.85 3.45 10.95 3.45 6.48 0 11.577-1.94 15.29-5.82 3.713-3.88 5.57-9.15 5.57-15.81v-6.01h-.51c-2.047 3.067-4.95 5.627-8.71 7.68-3.753 2.047-7.977 3.07-12.67 3.07-8.107 0-15.103-3.2-20.99-9.6-5.887-6.4-8.83-14.337-8.83-23.81 0-9.473 2.943-17.41 8.83-23.81 5.887-6.4 12.883-9.6 20.99-9.6 4.693 0 8.917 1.023 12.67 3.07 3.76 2.053 6.663 4.613 8.71 7.68h.51v-8.7h11.26v59.52c0 10.753-3.113 18.923-9.34 24.51-6.227 5.593-13.82 8.39-22.78 8.39zm.89-38.4c5.547 0 10.263-2.05 14.15-6.15 3.88-4.093 5.82-9.597 5.82-16.51 0-6.913-1.94-12.417-5.82-16.51-3.887-4.1-8.603-6.15-14.15-6.15-5.46 0-10.153 2.07-14.08 6.21-3.927 4.14-5.89 9.623-5.89 16.45s1.963 12.31 5.89 16.45c3.927 4.14 8.62 6.21 14.08 6.21zm72.71 10.75c-9.473 0-17.177-3.157-23.11-9.47-5.927-6.32-8.89-14.3-8.89-23.94 0-9.133 2.88-16.983 8.64-23.55 5.76-6.573 13.12-9.86 22.08-9.86 9.3 0 16.743 3.03 22.33 9.09 5.593 6.06 8.39 14.167 8.39 24.32l-.13 2.18h-49.54c.34 6.313 2.453 11.303 6.34 14.97 3.88 3.673 8.423 5.51 13.63 5.51 8.447 0 14.163-3.587 17.15-10.76l10.5 4.36c-2.047 4.86-5.417 8.933-10.11 12.22-4.693 3.287-10.453 4.93-17.28 4.93zm-19.46-40.96h36.35c-.253-3.587-1.897-7-4.93-10.24-3.027-3.247-7.527-4.87-13.5-4.87-4.353 0-8.13 1.367-11.33 4.1-3.2 2.733-5.397 6.403-6.59 11.01z" fill-opacity=".54" fill="#000"/>
  </g>
</svg>
