<svg xmlns="http://www.w3.org/2000/svg" width="1064.7" height="448">
  <defs>
    <clipPath id="a">
      <circle cx="192" cy="224" r="96" fill="none"/>
    </clipPath>
  </defs>
  <g fill="none">
    <path d="M0 0h1064.7v448H0z"/>
    <g clip-path="url(#a)">
      <path fill="#ffa000" d="M96 128h192v192H96z"/>
      <path d="M206 206.537a21 21 0 1 0 8.932 21.56l15.699 15.704a7 7 0 0 1 0 9.898l-6.599 6.598a7 7 0 0 1-9.898 0L206 252.168v11.499a7 7 0 0 1-7 7h-9.333a7 7 0 0 1-7-7v-11.499l-8.134 8.13a7 7 0 0 1-9.898 0l-6.599-6.6a7 7 0 0 1 0-9.897l8.13-8.134h-11.5a7 7 0 0 1-7-7v-9.334a7 7 0 0 1 7-7h11.5l-8.13-8.134a7 7 0 0 1 0-9.898l6.599-6.598a7 7 0 0 1 9.898 0l8.134 8.129v-11.499a7 7 0 0 1 7-7H199a7 7 0 0 1 7 7zm-11.667 26.796a9.333 9.333 0 1 1 0-18.666 9.333 9.333 0 0 1 0 18.666z" fill="#fff"/>
    </g>
    <path d="M383.61 274.05c-13.48 0-24.787-4.567-33.92-13.7-9.127-9.127-13.69-20.517-13.69-34.17 0-13.653 4.563-25.047 13.69-34.18 9.133-9.133 20.44-13.7 33.92-13.7 13.827 0 25.05 4.993 33.67 14.98l-8.2 7.94c-6.227-7.767-14.717-11.65-25.47-11.65-9.98 0-18.407 3.37-25.28 10.11-6.867 6.74-10.3 15.573-10.3 26.5 0 10.92 3.433 19.75 10.3 26.49 6.873 6.74 15.3 10.11 25.28 10.11 11.007 0 20.393-4.437 28.16-13.31l8.19 8.19c-4.18 5.04-9.427 9.03-15.74 11.97-6.313 2.947-13.183 4.42-20.61 4.42zm57.35-36.35V272h-11.78v-62.72h11.26v10.24h.52c1.193-3.413 3.647-6.23 7.36-8.45 3.707-2.22 7.31-3.33 10.81-3.33 3.5 0 6.443.513 8.83 1.54l-4.48 11.01c-1.533-.6-3.623-.9-6.27-.9-4.267 0-8.043 1.687-11.33 5.06-3.28 3.367-4.92 7.783-4.92 13.25zm51.96 36.35c-6.653 0-12.22-1.92-16.7-5.76-4.48-3.84-6.72-8.917-6.72-15.23 0-6.827 2.647-12.183 7.94-16.07 5.287-3.88 11.813-5.82 19.58-5.82 6.913 0 12.587 1.28 17.02 3.84v-1.79c0-4.613-1.577-8.307-4.73-11.08-3.16-2.773-7.043-4.16-11.65-4.16-3.413 0-6.507.813-9.28 2.44-2.773 1.62-4.673 3.837-5.7 6.65l-10.75-4.61c1.453-3.753 4.313-7.23 8.58-10.43 4.267-3.2 9.897-4.8 16.89-4.8 8.027 0 14.683 2.347 19.97 7.04 5.293 4.693 7.94 11.307 7.94 19.84V272h-11.27v-8.7h-.51c-4.693 7.167-11.563 10.75-20.61 10.75zm1.92-10.75c4.867 0 9.283-1.813 13.25-5.44 3.967-3.627 5.95-7.917 5.95-12.87-3.327-2.727-8.317-4.09-14.97-4.09-5.72 0-10.03 1.237-12.93 3.71-2.9 2.473-4.35 5.373-4.35 8.7 0 3.073 1.323 5.507 3.97 7.3 2.64 1.793 5.667 2.69 9.08 2.69zM560 274.05c-7 0-12.783-1.707-17.35-5.12-4.567-3.413-7.917-7.68-10.05-12.8l10.5-4.35c3.327 7.847 9 11.77 17.02 11.77 3.673 0 6.683-.81 9.03-2.43 2.347-1.62 3.52-3.753 3.52-6.4 0-4.093-2.86-6.867-8.58-8.32l-12.67-3.07c-4.013-1.027-7.81-2.97-11.39-5.83-3.587-2.853-5.38-6.713-5.38-11.58 0-5.547 2.453-10.047 7.36-13.5 4.907-3.46 10.73-5.19 17.47-5.19 5.547 0 10.497 1.26 14.85 3.78 4.353 2.513 7.47 6.117 9.35 10.81l-10.24 4.23c-2.307-5.547-7.087-8.32-14.34-8.32-3.5 0-6.443.723-8.83 2.17-2.393 1.453-3.59 3.417-3.59 5.89 0 3.587 2.773 6.02 8.32 7.3l12.42 2.94c5.887 1.367 10.24 3.713 13.06 7.04 2.813 3.327 4.22 7.083 4.22 11.27 0 5.627-2.303 10.32-6.91 14.08-4.607 3.753-10.537 5.63-17.79 5.63zm34.3-93.7h11.78v28.93l-.52 8.7h.52c1.707-2.987 4.393-5.523 8.06-7.61 3.667-2.093 7.593-3.14 11.78-3.14 7.76 0 13.69 2.39 17.79 7.17 4.093 4.78 6.14 11.18 6.14 19.2V272h-11.77v-36.61c0-11.607-5.163-17.41-15.49-17.41-4.867 0-8.837 1.943-11.91 5.83-3.067 3.88-4.6 8.38-4.6 13.5V272H594.3zm79.87 0V272H662.4v-91.65zm70.4 28.93l-39.29 90.37h-12.16l14.59-31.62-25.86-58.75h12.8l18.69 45.06h.26l18.17-45.06zm34.82 63.74c-6.573 0-11.587-1.747-15.04-5.24-3.46-3.5-5.19-8.45-5.19-14.85v-32.9h-11v-10.75h11v-19.2h11.78v19.2h15.36v10.75h-15.36v32c0 6.827 2.817 10.24 8.45 10.24 2.133 0 3.923-.34 5.37-1.02l4.1 10.11c-2.56 1.107-5.717 1.66-9.47 1.66zm29.69-79.48c-1.62 1.62-3.58 2.43-5.88 2.43-2.307 0-4.27-.81-5.89-2.43-1.62-1.627-2.43-3.59-2.43-5.89 0-2.307.81-4.27 2.43-5.89s3.583-2.43 5.89-2.43c2.3 0 4.26.81 5.88 2.43 1.627 1.62 2.44 3.583 2.44 5.89 0 2.3-.813 4.263-2.44 5.89zm0 15.74V272h-11.77v-62.72zm42.12 64.77c-9.387 0-17.11-3.18-23.17-9.54-6.06-6.353-9.09-14.31-9.09-23.87s3.03-17.517 9.09-23.87c6.06-6.36 13.783-9.54 23.17-9.54 6.993 0 12.793 1.707 17.4 5.12 4.613 3.413 7.987 7.723 10.12 12.93l-10.76 4.48c-3.24-7.853-9.083-11.78-17.53-11.78-5.207 0-9.793 2.133-13.76 6.4-3.967 4.267-5.95 9.687-5.95 16.26 0 6.573 1.983 11.993 5.95 16.26 3.967 4.267 8.553 6.4 13.76 6.4 8.787 0 14.843-3.927 18.17-11.78l10.5 4.48c-2.133 5.12-5.567 9.407-10.3 12.86-4.74 3.46-10.607 5.19-17.6 5.19zm60.8 0c-7 0-12.783-1.707-17.35-5.12-4.567-3.413-7.917-7.68-10.05-12.8l10.5-4.35c3.327 7.847 9 11.77 17.02 11.77 3.673 0 6.683-.81 9.03-2.43 2.347-1.62 3.52-3.753 3.52-6.4 0-4.093-2.86-6.867-8.58-8.32l-12.67-3.07c-4.013-1.027-7.81-2.97-11.39-5.83-3.587-2.853-5.38-6.713-5.38-11.58 0-5.547 2.453-10.047 7.36-13.5 4.907-3.46 10.73-5.19 17.47-5.19 5.547 0 10.497 1.26 14.85 3.78 4.353 2.513 7.47 6.117 9.35 10.81l-10.24 4.23c-2.307-5.547-7.087-8.32-14.34-8.32-3.5 0-6.443.723-8.83 2.17-2.393 1.453-3.59 3.417-3.59 5.89 0 3.587 2.773 6.02 8.32 7.3l12.42 2.94c5.887 1.367 10.24 3.713 13.06 7.04 2.813 3.327 4.22 7.083 4.22 11.27 0 5.627-2.303 10.32-6.91 14.08-4.607 3.753-10.537 5.63-17.79 5.63z" fill-opacity=".54" fill="#000"/>
  </g>
</svg>
