<svg xmlns="http://www.w3.org/2000/svg" width="1351.16" height="448">
  <defs>
    <clipPath id="a">
      <circle cx="192" cy="224" r="96" fill="none"/>
    </clipPath>
  </defs>
  <g fill="none">
    <path d="M0 0h1351.16v448H0z"/>
    <g clip-path="url(#a)">
      <path fill="#ffa000" d="M96 128h192v192H96z"/>
      <path d="M229.333 205.333H216.22a27.929 27.929 0 0 0-8.493-9.146l7.606-7.607-6.58-6.58-10.126 10.127a28.306 28.306 0 0 0-6.627-.794c-2.287 0-4.48.28-6.58.794L175.247 182l-6.58 6.58 7.56 7.607a28.29 28.29 0 0 0-8.447 9.146h-13.113v9.334h9.753c-.233 1.54-.42 3.08-.42 4.666V224h-9.333v9.333H164V238c0 1.587.187 3.127.42 4.667h-9.753V252h13.113c4.853 8.353 13.86 14 24.22 14s19.367-5.647 24.22-14h13.113v-9.333h-9.753c.233-1.54.42-3.08.42-4.667v-4.667h9.333V224H220v-4.667c0-1.586-.187-3.126-.42-4.666h9.753zm-28 37.334h-18.666v-9.334h18.666zm0-18.667h-18.666v-9.333h18.666z" fill="#fff" fill-rule="evenodd"/>
    </g>
    <path d="M383.61 274.05c-13.48 0-24.787-4.567-33.92-13.7-9.127-9.127-13.69-20.517-13.69-34.17 0-13.653 4.563-25.047 13.69-34.18 9.133-9.133 20.44-13.7 33.92-13.7 13.827 0 25.05 4.993 33.67 14.98l-8.2 7.94c-6.227-7.767-14.717-11.65-25.47-11.65-9.98 0-18.407 3.37-25.28 10.11-6.867 6.74-10.3 15.573-10.3 26.5 0 10.92 3.433 19.75 10.3 26.49 6.873 6.74 15.3 10.11 25.28 10.11 11.007 0 20.393-4.437 28.16-13.31l8.19 8.19c-4.18 5.04-9.427 9.03-15.74 11.97-6.313 2.947-13.183 4.42-20.61 4.42zm57.35-36.35V272h-11.78v-62.72h11.26v10.24h.52c1.193-3.413 3.647-6.23 7.36-8.45 3.707-2.22 7.31-3.33 10.81-3.33 3.5 0 6.443.513 8.83 1.54l-4.48 11.01c-1.533-.6-3.623-.9-6.27-.9-4.267 0-8.043 1.687-11.33 5.06-3.28 3.367-4.92 7.783-4.92 13.25zm51.96 36.35c-6.653 0-12.22-1.92-16.7-5.76-4.48-3.84-6.72-8.917-6.72-15.23 0-6.827 2.647-12.183 7.94-16.07 5.287-3.88 11.813-5.82 19.58-5.82 6.913 0 12.587 1.28 17.02 3.84v-1.79c0-4.613-1.577-8.307-4.73-11.08-3.16-2.773-7.043-4.16-11.65-4.16-3.413 0-6.507.813-9.28 2.44-2.773 1.62-4.673 3.837-5.7 6.65l-10.75-4.61c1.453-3.753 4.313-7.23 8.58-10.43 4.267-3.2 9.897-4.8 16.89-4.8 8.027 0 14.683 2.347 19.97 7.04 5.293 4.693 7.94 11.307 7.94 19.84V272h-11.27v-8.7h-.51c-4.693 7.167-11.563 10.75-20.61 10.75zm1.92-10.75c4.867 0 9.283-1.813 13.25-5.44 3.967-3.627 5.95-7.917 5.95-12.87-3.327-2.727-8.317-4.09-14.97-4.09-5.72 0-10.03 1.237-12.93 3.71-2.9 2.473-4.35 5.373-4.35 8.7 0 3.073 1.323 5.507 3.97 7.3 2.64 1.793 5.667 2.69 9.08 2.69zM560 274.05c-7 0-12.783-1.707-17.35-5.12-4.567-3.413-7.917-7.68-10.05-12.8l10.5-4.35c3.327 7.847 9 11.77 17.02 11.77 3.673 0 6.683-.81 9.03-2.43 2.347-1.62 3.52-3.753 3.52-6.4 0-4.093-2.86-6.867-8.58-8.32l-12.67-3.07c-4.013-1.027-7.81-2.97-11.39-5.83-3.587-2.853-5.38-6.713-5.38-11.58 0-5.547 2.453-10.047 7.36-13.5 4.907-3.46 10.73-5.19 17.47-5.19 5.547 0 10.497 1.26 14.85 3.78 4.353 2.513 7.47 6.117 9.35 10.81l-10.24 4.23c-2.307-5.547-7.087-8.32-14.34-8.32-3.5 0-6.443.723-8.83 2.17-2.393 1.453-3.59 3.417-3.59 5.89 0 3.587 2.773 6.02 8.32 7.3l12.42 2.94c5.887 1.367 10.24 3.713 13.06 7.04 2.813 3.327 4.22 7.083 4.22 11.27 0 5.627-2.303 10.32-6.91 14.08-4.607 3.753-10.537 5.63-17.79 5.63zm34.3-93.7h11.78v28.93l-.52 8.7h.52c1.707-2.987 4.393-5.523 8.06-7.61 3.667-2.093 7.593-3.14 11.78-3.14 7.76 0 13.69 2.39 17.79 7.17 4.093 4.78 6.14 11.18 6.14 19.2V272h-11.77v-36.61c0-11.607-5.163-17.41-15.49-17.41-4.867 0-8.837 1.943-11.91 5.83-3.067 3.88-4.6 8.38-4.6 13.5V272H594.3zM705.66 272h-11.78v-91.65h31.24c7.76 0 14.48 2.583 20.16 7.75 5.673 5.16 8.51 11.667 8.51 19.52 0 6.4-2.09 12.053-6.27 16.96-4.187 4.907-9.393 8-15.62 9.28l-.26.38 25.73 37.25v.51h-13.95l-24.7-37.12h-13.06zm0-80.38v32.25h18.94c4.693 0 8.727-1.537 12.1-4.61 3.373-3.067 5.06-6.947 5.06-11.64 0-4.013-1.493-7.683-4.48-11.01s-6.957-4.99-11.91-4.99zm86.66 82.43c-9.473 0-17.177-3.157-23.11-9.47-5.927-6.32-8.89-14.3-8.89-23.94 0-9.133 2.88-16.983 8.64-23.55 5.76-6.573 13.12-9.86 22.08-9.86 9.3 0 16.743 3.03 22.33 9.09 5.593 6.06 8.39 14.167 8.39 24.32l-.13 2.18h-49.54c.34 6.313 2.453 11.303 6.34 14.97 3.88 3.673 8.423 5.51 13.63 5.51 8.447 0 14.163-3.587 17.15-10.76l10.5 4.36c-2.047 4.86-5.417 8.933-10.11 12.22-4.693 3.287-10.453 4.93-17.28 4.93zm-19.46-40.96h36.35c-.253-3.587-1.897-7-4.93-10.24-3.027-3.247-7.527-4.87-13.5-4.87-4.353 0-8.13 1.367-11.33 4.1-3.2 2.733-5.397 6.403-6.59 11.01zm91.01 40.96c-4.78 0-9.07-1.023-12.87-3.07-3.793-2.053-6.63-4.613-8.51-7.68h-.51l.51 8.7v27.65h-11.77v-90.37h11.26v8.7h.51c1.88-3.067 4.717-5.627 8.51-7.68 3.8-2.047 8.09-3.07 12.87-3.07 8.107 0 15.103 3.2 20.99 9.6 5.887 6.4 8.83 14.337 8.83 23.81 0 9.473-2.943 17.41-8.83 23.81-5.887 6.4-12.883 9.6-20.99 9.6zm-1.92-10.75c5.46 0 10.153-2.07 14.08-6.21 3.927-4.14 5.89-9.623 5.89-16.45s-1.963-12.31-5.89-16.45c-3.927-4.14-8.62-6.21-14.08-6.21-5.547 0-10.263 2.05-14.15 6.15-3.88 4.093-5.82 9.597-5.82 16.51 0 6.913 1.94 12.417 5.82 16.51 3.887 4.1 8.603 6.15 14.15 6.15zm47.36-46.53c6.06-6.36 13.783-9.54 23.17-9.54 9.387 0 17.107 3.18 23.16 9.54 6.06 6.353 9.09 14.31 9.09 23.87s-3.03 17.517-9.09 23.87c-6.053 6.36-13.773 9.54-23.16 9.54s-17.11-3.18-23.17-9.54c-6.06-6.353-9.09-14.31-9.09-23.87s3.03-17.517 9.09-23.87zm8.77 40.32c4.053 4.14 8.853 6.21 14.4 6.21 5.547 0 10.347-2.07 14.4-6.21 4.053-4.14 6.08-9.623 6.08-16.45s-2.027-12.31-6.08-16.45c-4.053-4.14-8.853-6.21-14.4-6.21-5.547 0-10.347 2.07-14.4 6.21-4.053 4.14-6.08 9.623-6.08 16.45s2.027 12.31 6.08 16.45zm131.9 15.93c-6.573 0-11.587-1.747-15.04-5.24-3.453-3.5-5.18-8.45-5.18-14.85v-32.9h-11.01v-10.75h11.01v-19.2h11.77v19.2h15.36v10.75h-15.36v32c0 6.827 2.817 10.24 8.45 10.24 2.133 0 3.927-.34 5.38-1.02l4.09 10.11c-2.56 1.107-5.717 1.66-9.47 1.66zm-75.78-63.74h11.27v10.24h.51c1.367-3.667 3.907-6.547 7.62-8.64 3.707-2.093 7.78-3.14 12.22-3.14 1.28 0 2.687.087 4.22.26v11.52a44.464 44.464 0 0 0-4.73-.26c-5.633 0-10.263 1.643-13.89 4.93-3.627 3.287-5.44 7.79-5.44 13.51V272H974.2zm107.4-15.74c-1.627 1.62-3.59 2.43-5.89 2.43-2.307 0-4.27-.81-5.89-2.43-1.62-1.627-2.43-3.59-2.43-5.89 0-2.307.81-4.27 2.43-5.89s3.583-2.43 5.89-2.43c2.3 0 4.263.81 5.89 2.43 1.62 1.62 2.43 3.583 2.43 5.89 0 2.3-.81 4.263-2.43 5.89zm0 15.74V272h-11.78v-62.72zm14.08 0h11.26v8.7h.51c1.707-2.987 4.397-5.523 8.07-7.61 3.667-2.093 7.59-3.14 11.77-3.14 7.767 0 13.697 2.39 17.79 7.17 4.1 4.78 6.15 11.18 6.15 19.2V272h-11.78v-36.61c0-11.607-5.163-17.41-15.49-17.41-4.86 0-8.827 1.943-11.9 5.83-3.073 3.88-4.61 8.38-4.61 13.5V272h-11.77zm95.36 92.42c-7.427 0-13.487-1.857-18.18-5.57s-8.063-7.96-10.11-12.74l10.75-4.48c1.193 3.413 3.39 6.273 6.59 8.58 3.2 2.3 6.85 3.45 10.95 3.45 6.48 0 11.577-1.94 15.29-5.82 3.713-3.88 5.57-9.15 5.57-15.81v-6.01h-.51c-2.047 3.067-4.95 5.627-8.71 7.68-3.753 2.047-7.977 3.07-12.67 3.07-8.107 0-15.103-3.2-20.99-9.6-5.887-6.4-8.83-14.337-8.83-23.81 0-9.473 2.943-17.41 8.83-23.81 5.887-6.4 12.883-9.6 20.99-9.6 4.693 0 8.917 1.023 12.67 3.07 3.76 2.053 6.663 4.613 8.71 7.68h.51v-8.7h11.26v59.52c0 10.753-3.113 18.923-9.34 24.51-6.227 5.593-13.82 8.39-22.78 8.39zm.89-38.4c5.547 0 10.263-2.05 14.15-6.15 3.88-4.093 5.82-9.597 5.82-16.51 0-6.913-1.94-12.417-5.82-16.51-3.887-4.1-8.603-6.15-14.15-6.15-5.46 0-10.153 2.07-14.08 6.21-3.927 4.14-5.89 9.623-5.89 16.45s1.963 12.31 5.89 16.45c3.927 4.14 8.62 6.21 14.08 6.21z" fill-opacity=".54" fill="#000"/>
  </g>
</svg>
