<svg xmlns="http://www.w3.org/2000/svg" width="1242.11" height="448">
  <defs>
    <clipPath id="a">
      <circle cx="192" cy="224" r="96" fill="none"/>
    </clipPath>
  </defs>
  <g fill="none">
    <path d="M0 0h1242.11v448H0z"/>
    <g clip-path="url(#a)">
      <path fill="#ff8a65" d="M96 128h192v192H96z"/>
      <path d="M165.27 250.73c-5.647-5.646-5.647-14.816 0-20.458l13.206-13.207-6.277-6.262L159.007 224c-9.114 9.11-9.114 23.893 0 32.993 9.1 9.114 23.884 9.114 32.993 0l13.197-13.192-6.267-6.272-13.207 13.197c-5.637 5.647-14.807 5.647-20.454 0zm16.832-10.229l26.395-26.399-6.604-6.608-26.394 26.4zM192 191.007l-13.197 13.188 6.267 6.272 13.207-13.198c5.637-5.646 14.807-5.646 20.454 0 5.646 5.647 5.646 14.817 0 20.459l-13.207 13.207 6.277 6.262L224.993 224c9.114-9.11 9.114-23.893 0-32.993-9.1-9.114-23.884-9.114-32.993 0z" fill="#fff" fill-rule="evenodd"/>
    </g>
    <path d="M364.03 272H336v-91.65h28.03c14.08 0 25.343 4.247 33.79 12.74 8.447 8.487 12.67 19.517 12.67 33.09 0 13.567-4.223 24.593-12.67 33.08-8.447 8.493-19.71 12.74-33.79 12.74zm-16.26-80.38v69.12h16.26c10.58 0 18.963-3.03 25.15-9.09 6.187-6.06 9.28-14.55 9.28-25.47 0-10.84-3.093-19.31-9.28-25.41-6.187-6.1-14.57-9.15-25.15-9.15zm130.05 17.66l-39.3 90.37h-12.16l14.6-31.62-25.86-58.75h12.8l18.69 45.06h.25l18.18-45.06zm7.68 0h11.26v8.7h.52c1.707-2.987 4.393-5.523 8.06-7.61 3.667-2.093 7.593-3.14 11.78-3.14 7.76 0 13.69 2.39 17.79 7.17 4.093 4.78 6.14 11.18 6.14 19.2V272h-11.77v-36.61c0-11.607-5.163-17.41-15.49-17.41-4.867 0-8.837 1.943-11.91 5.83-3.067 3.88-4.6 8.38-4.6 13.5V272H485.5zm88.58 64.77c-6.66 0-12.23-1.92-16.71-5.76s-6.72-8.917-6.72-15.23c0-6.827 2.647-12.183 7.94-16.07 5.287-3.88 11.813-5.82 19.58-5.82 6.913 0 12.59 1.28 17.03 3.84v-1.79c0-4.613-1.58-8.307-4.74-11.08-3.16-2.773-7.043-4.16-11.65-4.16-3.413 0-6.507.813-9.28 2.44-2.773 1.62-4.67 3.837-5.69 6.65l-10.76-4.61c1.453-3.753 4.313-7.23 8.58-10.43 4.267-3.2 9.9-4.8 16.9-4.8 8.02 0 14.673 2.347 19.96 7.04 5.293 4.693 7.94 11.307 7.94 19.84V272H595.2v-8.7h-.52c-4.693 7.167-11.56 10.75-20.6 10.75zM576 263.3c4.86 0 9.273-1.813 13.24-5.44 3.973-3.627 5.96-7.917 5.96-12.87-3.333-2.727-8.327-4.09-14.98-4.09-5.72 0-10.03 1.237-12.93 3.71-2.9 2.473-4.35 5.373-4.35 8.7 0 3.073 1.323 5.507 3.97 7.3 2.647 1.793 5.677 2.69 9.09 2.69zm54.27 8.7h-11.78v-62.72h11.27v8.7h.51c1.793-2.987 4.543-5.523 8.25-7.61 3.713-2.093 7.407-3.14 11.08-3.14 9.727 0 16.34 4.01 19.84 12.03 5.12-8.02 12.413-12.03 21.88-12.03 7.427 0 13.017 2.37 16.77 7.11 3.753 4.733 5.63 11.153 5.63 19.26V272h-11.77v-36.61c0-6.313-1.153-10.793-3.46-13.44-2.3-2.647-5.797-3.97-10.49-3.97-4.613 0-8.433 1.963-11.46 5.89-3.027 3.927-4.54 8.407-4.54 13.44V272h-11.78v-36.61c0-6.313-1.153-10.793-3.46-13.44-2.3-2.647-5.797-3.97-10.49-3.97-4.607 0-8.427 1.963-11.46 5.89-3.027 3.927-4.54 8.407-4.54 13.44zm108.8-78.46c-1.62 1.62-3.583 2.43-5.89 2.43-2.307 0-4.27-.81-5.89-2.43-1.62-1.627-2.43-3.59-2.43-5.89 0-2.307.81-4.27 2.43-5.89s3.583-2.43 5.89-2.43c2.307 0 4.27.81 5.89 2.43s2.43 3.583 2.43 5.89c0 2.3-.81 4.263-2.43 5.89zm0 15.74V272h-11.78v-62.72zm42.11 64.77c-9.387 0-17.11-3.18-23.17-9.54-6.06-6.353-9.09-14.31-9.09-23.87s3.03-17.517 9.09-23.87c6.06-6.36 13.783-9.54 23.17-9.54 7 0 12.803 1.707 17.41 5.12 4.607 3.413 7.977 7.723 10.11 12.93l-10.75 4.48c-3.247-7.853-9.093-11.78-17.54-11.78-5.207 0-9.793 2.133-13.76 6.4-3.967 4.267-5.95 9.687-5.95 16.26 0 6.573 1.983 11.993 5.95 16.26 3.967 4.267 8.553 6.4 13.76 6.4 8.793 0 14.853-3.927 18.18-11.78l10.49 4.48c-2.133 5.12-5.567 9.407-10.3 12.86-4.733 3.46-10.6 5.19-17.6 5.19zM900.99 272h-51.46v-91.65h11.78v80.39h39.68zm23.04-78.46c-1.62 1.62-3.583 2.43-5.89 2.43-2.307 0-4.27-.81-5.89-2.43-1.62-1.627-2.43-3.59-2.43-5.89 0-2.307.81-4.27 2.43-5.89s3.583-2.43 5.89-2.43c2.307 0 4.27.81 5.89 2.43s2.43 3.583 2.43 5.89c0 2.3-.81 4.263-2.43 5.89zm0 15.74V272h-11.78v-62.72zm14.08 0h11.26v8.7h.51c1.707-2.987 4.397-5.523 8.07-7.61 3.667-2.093 7.59-3.14 11.77-3.14 7.767 0 13.7 2.39 17.8 7.17 4.093 4.78 6.14 11.18 6.14 19.2V272h-11.78v-36.61c0-11.607-5.16-17.41-15.48-17.41-4.867 0-8.837 1.943-11.91 5.83-3.073 3.88-4.61 8.38-4.61 13.5V272h-11.77zm68.09-28.93h11.78v56.45l27.14-27.52h15.1v.51l-24.45 24.45 25.6 37.25v.51h-14.21l-19.71-29.57-9.47 9.47V272h-11.78zm83.2 93.7c-6.993 0-12.773-1.707-17.34-5.12-4.567-3.413-7.917-7.68-10.05-12.8l10.5-4.35c3.327 7.847 9 11.77 17.02 11.77 3.673 0 6.683-.81 9.03-2.43 2.347-1.62 3.52-3.753 3.52-6.4 0-4.093-2.86-6.867-8.58-8.32l-12.67-3.07c-4.013-1.027-7.81-2.97-11.39-5.83-3.587-2.853-5.38-6.713-5.38-11.58 0-5.547 2.453-10.047 7.36-13.5 4.907-3.46 10.73-5.19 17.47-5.19 5.547 0 10.497 1.26 14.85 3.78 4.353 2.513 7.467 6.117 9.34 10.81l-10.24 4.23c-2.3-5.547-7.077-8.32-14.33-8.32-3.5 0-6.443.723-8.83 2.17-2.393 1.453-3.59 3.417-3.59 5.89 0 3.587 2.773 6.02 8.32 7.3l12.42 2.94c5.887 1.367 10.237 3.713 13.05 7.04 2.82 3.327 4.23 7.083 4.23 11.27 0 5.627-2.303 10.32-6.91 14.08-4.613 3.753-10.547 5.63-17.8 5.63z" fill-opacity=".54" fill="#000"/>
  </g>
</svg>
