<svg xmlns="http://www.w3.org/2000/svg" width="1037.69" height="448">
  <defs>
    <clipPath id="a">
      <circle cx="192" cy="224" r="96" fill="none"/>
    </clipPath>
  </defs>
  <g fill="none">
    <path d="M0 0h1037.69v448H0z"/>
    <g clip-path="url(#a)">
      <path fill="#ffca28" d="M96 128h192v192H96z"/>
      <path d="M197.404 177.973l10.91 11.074c3.669 3.724 2.18 5.114-.186 7.518l-10.659 10.817c-2.366 2.403-2.006 5.334-.014 7.355l7.243 7.35c1.997 2.025 4.877 2.389 7.243-.014l10.658-10.818c2.366-2.403 5.414-2.212 7.42-.186l10.822 10.99c1.998 2.03 2.194 5.128-.177 7.532l-34.967 35.49a21.7 21.7 0 0 1-31.015 0l-31.547-32.023c-2.006-2.03-2.179-5.147.187-7.546l10.58-10.738c2.365-2.403 2.86-4.62.863-6.65l-7.985-8.106c-2.002-2.025-2.025-5.283.34-7.686l10.277-10.43c2.366-2.403 5.469-2.268 7.466-.243l7.99 8.106c1.997 2.03 4.106 1.606 6.472-.793l10.659-10.822c2.366-2.403 5.423-2.207 7.42-.177z" fill="#fff" fill-rule="evenodd"/>
    </g>
    <path d="M389.5 180.35v11.27h-41.73v29.05h37.63v11.01h-37.63v29.06h41.73V272H336v-91.65zm41.73 59.78l22.4 31.87H439.8l-15.48-23.17L409.08 272h-13.82l22.14-31.87-21.63-30.85h13.31l15.49 22.14 14.72-22.14h13.83zm57.73 32.89c-6.573 0-11.587-1.747-15.04-5.24-3.46-3.5-5.19-8.45-5.19-14.85v-32.9h-11.01v-10.75h11.01v-19.2h11.78v19.2h15.36v10.75h-15.36v32c0 6.827 2.817 10.24 8.45 10.24 2.133 0 3.923-.34 5.37-1.02l4.1 10.11c-2.56 1.107-5.717 1.66-9.47 1.66zm44.67 1.03c-9.473 0-17.177-3.157-23.11-9.47-5.927-6.32-8.89-14.3-8.89-23.94 0-9.133 2.88-16.983 8.64-23.55 5.76-6.573 13.12-9.86 22.08-9.86 9.3 0 16.743 3.03 22.33 9.09 5.593 6.06 8.39 14.167 8.39 24.32l-.13 2.18H513.4c.347 6.313 2.46 11.303 6.34 14.97 3.88 3.673 8.423 5.51 13.63 5.51 8.447 0 14.163-3.587 17.15-10.76l10.5 4.36c-2.047 4.86-5.417 8.933-10.11 12.22-4.693 3.287-10.453 4.93-17.28 4.93zm-19.46-40.96h36.35c-.253-3.587-1.893-7-4.92-10.24-3.033-3.247-7.537-4.87-13.51-4.87-4.353 0-8.13 1.367-11.33 4.1-3.2 2.733-5.397 6.403-6.59 11.01zm58.37-23.81h11.26v8.7h.52c1.707-2.987 4.393-5.523 8.06-7.61 3.667-2.093 7.593-3.14 11.78-3.14 7.76 0 13.69 2.39 17.79 7.17 4.093 4.78 6.14 11.18 6.14 19.2V272h-11.77v-36.61c0-11.607-5.163-17.41-15.49-17.41-4.867 0-8.837 1.943-11.91 5.83-3.067 3.88-4.6 8.38-4.6 13.5V272h-11.78zm91.39 64.77c-6.993 0-12.773-1.707-17.34-5.12-4.567-3.413-7.917-7.68-10.05-12.8l10.5-4.35c3.327 7.847 9 11.77 17.02 11.77 3.667 0 6.673-.81 9.02-2.43 2.347-1.62 3.52-3.753 3.52-6.4 0-4.093-2.857-6.867-8.57-8.32l-12.67-3.07c-4.013-1.027-7.813-2.97-11.4-5.83-3.58-2.853-5.37-6.713-5.37-11.58 0-5.547 2.453-10.047 7.36-13.5 4.907-3.46 10.73-5.19 17.47-5.19 5.547 0 10.497 1.26 14.85 3.78 4.353 2.513 7.467 6.117 9.34 10.81l-10.24 4.23c-2.3-5.547-7.077-8.32-14.33-8.32-3.5 0-6.447.723-8.84 2.17-2.387 1.453-3.58 3.417-3.58 5.89 0 3.587 2.773 6.02 8.32 7.3l12.42 2.94c5.887 1.367 10.237 3.713 13.05 7.04 2.82 3.327 4.23 7.083 4.23 11.27 0 5.627-2.307 10.32-6.92 14.08-4.607 3.753-10.537 5.63-17.79 5.63zm45.83-80.51c-1.627 1.62-3.59 2.43-5.89 2.43-2.307 0-4.27-.81-5.89-2.43-1.62-1.627-2.43-3.59-2.43-5.89 0-2.307.81-4.27 2.43-5.89s3.583-2.43 5.89-2.43c2.3 0 4.263.81 5.89 2.43 1.62 1.62 2.43 3.583 2.43 5.89 0 2.3-.81 4.263-2.43 5.89zm0 15.74V272h-11.78v-62.72zm18.94 7.49c6.06-6.36 13.783-9.54 23.17-9.54 9.387 0 17.11 3.18 23.17 9.54 6.053 6.353 9.08 14.31 9.08 23.87s-3.027 17.517-9.08 23.87c-6.06 6.36-13.783 9.54-23.17 9.54-9.387 0-17.11-3.18-23.17-9.54-6.06-6.353-9.09-14.31-9.09-23.87s3.03-17.517 9.09-23.87zm8.77 40.32c4.053 4.14 8.853 6.21 14.4 6.21 5.547 0 10.347-2.07 14.4-6.21 4.053-4.14 6.08-9.623 6.08-16.45s-2.027-12.31-6.08-16.45c-4.053-4.14-8.853-6.21-14.4-6.21-5.547 0-10.347 2.07-14.4 6.21-4.053 4.14-6.08 9.623-6.08 16.45s2.027 12.31 6.08 16.45zm56.13-47.81h11.26v8.7h.51c1.707-2.987 4.397-5.523 8.07-7.61 3.667-2.093 7.59-3.14 11.77-3.14 7.767 0 13.697 2.39 17.79 7.17 4.1 4.78 6.15 11.18 6.15 19.2V272h-11.78v-36.61c0-11.607-5.163-17.41-15.49-17.41-4.86 0-8.827 1.943-11.9 5.83-3.073 3.88-4.61 8.38-4.61 13.5V272H793.6zm91.39 64.77c-7 0-12.783-1.707-17.35-5.12-4.56-3.413-7.907-7.68-10.04-12.8l10.49-4.35c3.327 7.847 9.003 11.77 17.03 11.77 3.667 0 6.673-.81 9.02-2.43 2.347-1.62 3.52-3.753 3.52-6.4 0-4.093-2.86-6.867-8.58-8.32l-12.67-3.07c-4.007-1.027-7.803-2.97-11.39-5.83-3.587-2.853-5.38-6.713-5.38-11.58 0-5.547 2.453-10.047 7.36-13.5 4.907-3.46 10.733-5.19 17.48-5.19 5.547 0 10.493 1.26 14.84 3.78 4.353 2.513 7.47 6.117 9.35 10.81l-10.24 4.23c-2.307-5.547-7.087-8.32-14.34-8.32-3.5 0-6.443.723-8.83 2.17-2.387 1.453-3.58 3.417-3.58 5.89 0 3.587 2.773 6.02 8.32 7.3l12.41 2.94c5.887 1.367 10.24 3.713 13.06 7.04 2.813 3.327 4.22 7.083 4.22 11.27 0 5.627-2.303 10.32-6.91 14.08-4.607 3.753-10.537 5.63-17.79 5.63z" fill-opacity=".54" fill="#000"/>
  </g>
</svg>
