<svg xmlns="http://www.w3.org/2000/svg" width="1416.61" height="448">
  <defs>
    <clipPath id="a">
      <circle cx="192" cy="224" r="96" fill="none"/>
    </clipPath>
  </defs>
  <g fill="none">
    <path d="M0 0h1416.61v448H0z"/>
    <g clip-path="url(#a)">
      <path fill="#ff8a65" d="M96 128h192v192H96z"/>
      <path d="M161.667 270.667c-6.444 0-11.667-5.224-11.667-11.667s5.223-11.667 11.667-11.667c6.443 0 11.666 5.224 11.666 11.667s-5.223 11.667-11.666 11.667zm30.333-56c6.443 0 11.667 5.223 11.667 11.666V259c0 6.443-5.224 11.667-11.667 11.667s-11.667-5.224-11.667-11.667v-32.667c0-6.443 5.224-11.666 11.667-11.666zm30.333-37.334c6.444 0 11.667 5.224 11.667 11.667v70c0 6.443-5.223 11.667-11.667 11.667-6.443 0-11.666-5.224-11.666-11.667v-70c0-6.443 5.223-11.667 11.666-11.667z" fill="#fff" fill-rule="evenodd"/>
    </g>
    <path d="M622.468 206.295c8.052 0 14.443 3.575 17.77 7.538h.508v-5.434h14.066v60.478c0 24.905-14.7 35.123-32.082 35.123-16.36 0-26.204-10.982-29.913-19.922l12.908-5.365c2.3 5.49 7.926 12.002 17 12.002 11.122 0 18.02-6.9 18.02-19.796v-4.853h-.507c-3.321 4.088-9.718 7.663-17.77 7.663-16.874 0-32.34-14.687-32.34-33.588 0-19.033 15.466-33.846 32.34-33.846zM389.173 169c15.979 0 27.358 6.26 35.917 14.431l-10.1 10.092c-6.135-5.747-14.443-10.217-25.822-10.217-21.092 0-37.583 16.985-37.583 38.059 0 21.073 16.491 38.059 37.583 38.059 13.678 0 21.473-5.49 26.46-10.474 4.092-4.088 6.775-9.961 7.796-18.006h-34.25v-14.306h48.191c.514 2.554.765 5.622.765 8.94 0 10.731-2.94 24.01-12.4 33.464-9.2 9.579-20.96 14.687-36.557 14.687-28.886.001-53.173-23.502-53.173-52.364S360.287 169 389.173 169zm328.405 37.295c17.514 0 26.08 13.924 28.887 21.456l1.535 3.831-45.122 18.645c3.453 6.768 8.823 10.217 16.361 10.217s12.783-3.7 16.618-9.322l11.504 7.663c-3.71 5.491-12.657 14.944-28.122 14.944-19.174 0-33.098-14.813-33.098-33.714 0-20.053 14.05-33.72 31.437-33.72zm-240.93-.006c18.667.006 33.875 14.18 33.875 33.72 0 19.415-15.208 33.715-33.874 33.715-18.66 0-33.874-14.306-33.874-33.715 0-19.54 15.213-33.72 33.874-33.72zm73.615 0c18.666.006 33.874 14.18 33.874 33.72 0 19.415-15.208 33.715-33.874 33.715-18.66 0-33.874-14.306-33.874-33.715 0-19.54 15.214-33.72 33.874-33.72zm129.247-33.714v99.113h-14.825v-99.113zm-55.758 47.005c-10.226 0-18.792 8.684-18.792 20.56 0 11.752 8.566 20.31 18.792 20.31 10.095-.006 18.021-8.558 18.021-20.31 0-11.876-7.926-20.56-18.021-20.56zm-147.103-.006c-10.226 0-19.049 8.302-19.049 20.435 0 12.003 8.823 20.435 19.049 20.435 10.226 0 19.048-8.427 19.048-20.435 0-12.133-8.822-20.435-19.048-20.435zm73.614 0c-10.226 0-19.048 8.302-19.048 20.435 0 12.003 8.822 20.435 19.048 20.435 10.226 0 19.048-8.427 19.048-20.435 0-12.133-8.822-20.435-19.048-20.435zm167.823-.25c-7.544 0-18.02 6.636-17.639 19.665l30.165-12.516c-1.66-4.213-6.648-7.15-12.526-7.15zM802.59 272h-13.05l34.56-91.65h13.31L871.97 272h-13.06l-8.83-24.83h-38.53zm27.91-77.18l-14.98 41.34h30.46l-14.97-41.34zm50.17 14.46h11.27v8.7h.51c1.707-2.987 4.393-5.523 8.06-7.61 3.673-2.093 7.6-3.14 11.78-3.14 7.767 0 13.697 2.39 17.79 7.17 4.093 4.78 6.14 11.18 6.14 19.2V272h-11.77v-36.61c0-11.607-5.163-17.41-15.49-17.41-4.867 0-8.833 1.943-11.9 5.83-3.073 3.88-4.61 8.38-4.61 13.5V272h-11.78zm88.58 64.77c-6.66 0-12.23-1.92-16.71-5.76s-6.72-8.917-6.72-15.23c0-6.827 2.647-12.183 7.94-16.07 5.293-3.88 11.82-5.82 19.58-5.82 6.913 0 12.59 1.28 17.03 3.84v-1.79c0-4.613-1.58-8.307-4.74-11.08-3.153-2.773-7.037-4.16-11.65-4.16-3.413 0-6.507.813-9.28 2.44-2.773 1.62-4.67 3.837-5.69 6.65l-10.75-4.61c1.447-3.753 4.303-7.23 8.57-10.43 4.267-3.2 9.9-4.8 16.9-4.8 8.02 0 14.677 2.347 19.97 7.04 5.287 4.693 7.93 11.307 7.93 19.84V272h-11.26v-8.7h-.51c-4.693 7.167-11.563 10.75-20.61 10.75zm1.92-10.75c4.86 0 9.277-1.813 13.25-5.44 3.967-3.627 5.95-7.917 5.95-12.87-3.327-2.727-8.32-4.09-14.98-4.09-5.713 0-10.023 1.237-12.93 3.71-2.9 2.473-4.35 5.373-4.35 8.7 0 3.073 1.323 5.507 3.97 7.3 2.647 1.793 5.677 2.69 9.09 2.69zm54.91-82.95V272h-11.78v-91.65zm70.4 28.93l-39.3 90.37h-12.16l14.6-31.62-25.86-58.75h12.8l18.69 45.06h.25l18.18-45.06zm34.82 63.74c-6.573 0-11.587-1.747-15.04-5.24-3.46-3.5-5.19-8.45-5.19-14.85v-32.9h-11.01v-10.75h11.01v-19.2h11.78v19.2h15.36v10.75h-15.36v32c0 6.827 2.817 10.24 8.45 10.24 2.133 0 3.923-.34 5.37-1.02l4.1 10.11c-2.56 1.107-5.717 1.66-9.47 1.66zm29.69-79.48c-1.62 1.62-3.583 2.43-5.89 2.43-2.3 0-4.26-.81-5.88-2.43-1.627-1.627-2.44-3.59-2.44-5.89 0-2.307.813-4.27 2.44-5.89 1.62-1.62 3.58-2.43 5.88-2.43 2.307 0 4.27.81 5.89 2.43s2.43 3.583 2.43 5.89c0 2.3-.81 4.263-2.43 5.89zm0 15.74V272h-11.77v-62.72zm42.11 64.77c-9.387 0-17.107-3.18-23.16-9.54-6.06-6.353-9.09-14.31-9.09-23.87s3.03-17.517 9.09-23.87c6.053-6.36 13.773-9.54 23.16-9.54 7 0 12.803 1.707 17.41 5.12 4.607 3.413 7.977 7.723 10.11 12.93l-10.75 4.48c-3.24-7.853-9.083-11.78-17.53-11.78-5.207 0-9.793 2.133-13.76 6.4-3.973 4.267-5.96 9.687-5.96 16.26 0 6.573 1.987 11.993 5.96 16.26 3.967 4.267 8.553 6.4 13.76 6.4 8.787 0 14.843-3.927 18.17-11.78l10.5 4.48c-2.133 5.12-5.57 9.407-10.31 12.86-4.733 3.46-10.6 5.19-17.6 5.19zm60.8 0c-6.993 0-12.773-1.707-17.34-5.12-4.567-3.413-7.917-7.68-10.05-12.8l10.5-4.35c3.327 7.847 9 11.77 17.02 11.77 3.673 0 6.683-.81 9.03-2.43 2.347-1.62 3.52-3.753 3.52-6.4 0-4.093-2.86-6.867-8.58-8.32l-12.67-3.07c-4.013-1.027-7.81-2.97-11.39-5.83-3.587-2.853-5.38-6.713-5.38-11.58 0-5.547 2.453-10.047 7.36-13.5 4.907-3.46 10.73-5.19 17.47-5.19 5.547 0 10.497 1.26 14.85 3.78 4.353 2.513 7.467 6.117 9.34 10.81l-10.24 4.23c-2.3-5.547-7.077-8.32-14.33-8.32-3.5 0-6.443.723-8.83 2.17-2.393 1.453-3.59 3.417-3.59 5.89 0 3.587 2.773 6.02 8.32 7.3l12.42 2.94c5.887 1.367 10.237 3.713 13.05 7.04 2.82 3.327 4.23 7.083 4.23 11.27 0 5.627-2.303 10.32-6.91 14.08-4.613 3.753-10.547 5.63-17.8 5.63z" fill-opacity=".54" fill="#000"/>
  </g>
</svg>
