<svg xmlns="http://www.w3.org/2000/svg" width="874.24" height="448">
  <defs>
    <clipPath id="a">
      <circle cx="192" cy="224" r="96" fill="none"/>
    </clipPath>
  </defs>
  <g fill="none">
    <path d="M0 0h874.24v448H0z"/>
    <g clip-path="url(#a)">
      <path fill="#ffca28" d="M96 128h192v192H96z"/>
      <path d="M192 177.333c-25.76 0-46.667 20.907-46.667 46.667S166.24 270.667 192 270.667 238.667 249.76 238.667 224 217.76 177.333 192 177.333zm-4.667 83.674C168.9 258.72 154.667 243.04 154.667 224c0-2.893.373-5.647.98-8.353L178 238v4.667c0 5.133 4.2 9.333 9.333 9.333zm32.2-11.854c-1.213-3.78-4.666-6.486-8.866-6.486H206v-14a4.68 4.68 0 0 0-4.667-4.667h-28v-9.333h9.334a4.68 4.68 0 0 0 4.666-4.667v-9.333h9.334c5.133 0 9.333-4.2 9.333-9.334v-1.913c13.673 5.553 23.333 18.947 23.333 34.58 0 9.707-3.733 18.527-9.8 25.153z" fill="#fff" fill-rule="evenodd"/>
    </g>
    <path d="M347.77 272H336v-91.65h11.77v39.3h45.83v-39.3h11.77V272H393.6v-41.34h-45.83zm79.49-55.23c6.06-6.36 13.783-9.54 23.17-9.54 9.387 0 17.11 3.18 23.17 9.54 6.053 6.353 9.08 14.31 9.08 23.87s-3.027 17.517-9.08 23.87c-6.06 6.36-13.783 9.54-23.17 9.54-9.387 0-17.11-3.18-23.17-9.54-6.06-6.353-9.09-14.31-9.09-23.87s3.03-17.517 9.09-23.87zm8.77 40.32c4.053 4.14 8.853 6.21 14.4 6.21 5.547 0 10.347-2.07 14.4-6.21 4.053-4.14 6.08-9.623 6.08-16.45s-2.027-12.31-6.08-16.45c-4.053-4.14-8.853-6.21-14.4-6.21-5.547 0-10.347 2.07-14.4 6.21-4.053 4.14-6.08 9.623-6.08 16.45s2.027 12.31 6.08 16.45zm78.78 16.96c-6.993 0-12.773-1.707-17.34-5.12-4.567-3.413-7.917-7.68-10.05-12.8l10.5-4.35c3.327 7.847 9 11.77 17.02 11.77 3.667 0 6.673-.81 9.02-2.43 2.347-1.62 3.52-3.753 3.52-6.4 0-4.093-2.857-6.867-8.57-8.32l-12.67-3.07c-4.013-1.027-7.813-2.97-11.4-5.83-3.58-2.853-5.37-6.713-5.37-11.58 0-5.547 2.453-10.047 7.36-13.5 4.907-3.46 10.73-5.19 17.47-5.19 5.547 0 10.497 1.26 14.85 3.78 4.353 2.513 7.467 6.117 9.34 10.81l-10.24 4.23c-2.3-5.547-7.077-8.32-14.33-8.32-3.5 0-6.447.723-8.84 2.17-2.387 1.453-3.58 3.417-3.58 5.89 0 3.587 2.773 6.02 8.32 7.3l12.42 2.94c5.887 1.367 10.237 3.713 13.05 7.04 2.82 3.327 4.23 7.083 4.23 11.27 0 5.627-2.307 10.32-6.92 14.08-4.607 3.753-10.537 5.63-17.79 5.63zm60.16-1.03c-6.567 0-11.58-1.747-15.04-5.24-3.453-3.5-5.18-8.45-5.18-14.85v-32.9h-11.01v-10.75h11.01v-19.2h11.77v19.2h15.36v10.75h-15.36v32c0 6.827 2.817 10.24 8.45 10.24 2.133 0 3.927-.34 5.38-1.02l4.09 10.11c-2.56 1.107-5.717 1.66-9.47 1.66zm29.7-79.48c-1.62 1.62-3.583 2.43-5.89 2.43-2.307 0-4.27-.81-5.89-2.43-1.62-1.627-2.43-3.59-2.43-5.89 0-2.307.81-4.27 2.43-5.89s3.583-2.43 5.89-2.43c2.307 0 4.27.81 5.89 2.43s2.43 3.583 2.43 5.89c0 2.3-.81 4.263-2.43 5.89zm0 15.74V272h-11.78v-62.72zm14.08 0h11.26v8.7h.51c1.707-2.987 4.397-5.523 8.07-7.61 3.667-2.093 7.59-3.14 11.77-3.14 7.767 0 13.7 2.39 17.8 7.17 4.093 4.78 6.14 11.18 6.14 19.2V272h-11.78v-36.61c0-11.607-5.16-17.41-15.48-17.41-4.867 0-8.837 1.943-11.91 5.83-3.073 3.88-4.61 8.38-4.61 13.5V272h-11.77zm95.36 92.42c-7.427 0-13.487-1.857-18.18-5.57s-8.063-7.96-10.11-12.74l10.75-4.48c1.193 3.413 3.39 6.273 6.59 8.58 3.2 2.3 6.85 3.45 10.95 3.45 6.487 0 11.583-1.94 15.29-5.82 3.713-3.88 5.57-9.15 5.57-15.81v-6.01h-.51c-2.047 3.067-4.947 5.627-8.7 7.68-3.76 2.047-7.987 3.07-12.68 3.07-8.107 0-15.103-3.2-20.99-9.6-5.887-6.4-8.83-14.337-8.83-23.81 0-9.473 2.943-17.41 8.83-23.81 5.887-6.4 12.883-9.6 20.99-9.6 4.693 0 8.92 1.023 12.68 3.07 3.753 2.053 6.653 4.613 8.7 7.68h.51v-8.7h11.27v59.52c0 10.753-3.117 18.923-9.35 24.51-6.227 5.593-13.82 8.39-22.78 8.39zm.89-38.4c5.547 0 10.263-2.05 14.15-6.15 3.88-4.093 5.82-9.597 5.82-16.51 0-6.913-1.94-12.417-5.82-16.51-3.887-4.1-8.603-6.15-14.15-6.15-5.46 0-10.153 2.07-14.08 6.21-3.92 4.14-5.88 9.623-5.88 16.45s1.96 12.31 5.88 16.45c3.927 4.14 8.62 6.21 14.08 6.21z" fill-opacity=".54" fill="#000"/>
  </g>
</svg>
