<svg xmlns="http://www.w3.org/2000/svg" width="1448.44" height="448">
  <defs>
    <clipPath id="a">
      <circle cx="192" cy="224" r="96" fill="none"/>
    </clipPath>
  </defs>
  <g fill="none">
    <path d="M0 0h1448.44v448H0z"/>
    <g clip-path="url(#a)">
      <path fill="#ff8a65" d="M96 128h192v192H96z"/>
      <path d="M164 251.71l9.333-3.85v13.473H220v-74.666h-46.667v13.612L164 196.387v-9.72c0-7.732 6.268-14 14-14h37.333c7.732 0 14 6.268 14 14v74.666c0 7.732-6.268 14-14 14H178c-7.732 0-14-6.268-14-14zm-23.333-21.503l42-6.207-42-6.253v-17.08l56 23.571-56 23.095z" fill="#fff" fill-rule="evenodd"/>
    </g>
    <path d="M347.77 272H336v-91.65h11.77zm13.83-62.72h11.26v8.7h.51c1.707-2.987 4.397-5.523 8.07-7.61 3.667-2.093 7.59-3.14 11.77-3.14 7.767 0 13.697 2.39 17.79 7.17 4.1 4.78 6.15 11.18 6.15 19.2V272h-11.78v-36.61c0-11.607-5.163-17.41-15.49-17.41-4.86 0-8.827 1.943-11.9 5.83-3.073 3.88-4.61 8.38-4.61 13.5V272H361.6zm110.33 27.9h-40.96v-9.72h40.96zM493.69 272h-13.05l34.56-91.65h13.31L563.07 272h-13.06l-8.83-24.83h-38.53zm27.91-77.18l-14.98 41.34h30.46l-14.97-41.34zm80.89 79.23c-4.78 0-9.067-1.023-12.86-3.07-3.8-2.053-6.637-4.613-8.51-7.68h-.52l.52 8.7v27.65h-11.78v-90.37h11.26v8.7h.52c1.873-3.067 4.71-5.627 8.51-7.68 3.793-2.047 8.08-3.07 12.86-3.07 8.107 0 15.103 3.2 20.99 9.6 5.893 6.4 8.84 14.337 8.84 23.81 0 9.473-2.947 17.41-8.84 23.81-5.887 6.4-12.883 9.6-20.99 9.6zm-1.92-10.75c5.46 0 10.153-2.07 14.08-6.21 3.927-4.14 5.89-9.623 5.89-16.45s-1.963-12.31-5.89-16.45c-3.927-4.14-8.62-6.21-14.08-6.21-5.547 0-10.26 2.05-14.14 6.15-3.887 4.093-5.83 9.597-5.83 16.51 0 6.913 1.943 12.417 5.83 16.51 3.88 4.1 8.593 6.15 14.14 6.15zm71.94 10.75c-4.78 0-9.07-1.023-12.87-3.07-3.793-2.053-6.63-4.613-8.51-7.68h-.51l.51 8.7v27.65h-11.77v-90.37h11.26v8.7h.51c1.88-3.067 4.717-5.627 8.51-7.68 3.8-2.047 8.09-3.07 12.87-3.07 8.107 0 15.103 3.2 20.99 9.6 5.887 6.4 8.83 14.337 8.83 23.81 0 9.473-2.943 17.41-8.83 23.81-5.887 6.4-12.883 9.6-20.99 9.6zm-1.92-10.75c5.46 0 10.153-2.07 14.08-6.21 3.927-4.14 5.89-9.623 5.89-16.45s-1.963-12.31-5.89-16.45c-3.927-4.14-8.62-6.21-14.08-6.21-5.547 0-10.263 2.05-14.15 6.15-3.88 4.093-5.82 9.597-5.82 16.51 0 6.913 1.94 12.417 5.82 16.51 3.887 4.1 8.603 6.15 14.15 6.15zm84.48 8.7h-11.78v-91.65h11.78l31.87 55.81h.51l31.87-55.81h11.78V272h-11.78v-54.4l.52-15.36h-.52l-28.67 50.3h-6.91l-28.67-50.3h-.51l.51 15.36zm119.55 2.05c-9.473 0-17.173-3.157-23.1-9.47-5.933-6.32-8.9-14.3-8.9-23.94 0-9.133 2.88-16.983 8.64-23.55 5.76-6.573 13.12-9.86 22.08-9.86 9.3 0 16.747 3.03 22.34 9.09 5.587 6.06 8.38 14.167 8.38 24.32l-.13 2.18H854.4c.34 6.313 2.45 11.303 6.33 14.97 3.887 3.673 8.43 5.51 13.63 5.51 8.453 0 14.173-3.587 17.16-10.76l10.49 4.36c-2.047 4.86-5.417 8.933-10.11 12.22-4.693 3.287-10.453 4.93-17.28 4.93zm-19.46-40.96h36.36c-.26-3.587-1.903-7-4.93-10.24-3.033-3.247-7.537-4.87-13.51-4.87-4.347 0-8.12 1.367-11.32 4.1-3.2 2.733-5.4 6.403-6.6 11.01zm81.67 40.96c-7 0-12.783-1.707-17.35-5.12-4.56-3.413-7.907-7.68-10.04-12.8l10.49-4.35c3.327 7.847 9.003 11.77 17.03 11.77 3.667 0 6.673-.81 9.02-2.43 2.347-1.62 3.52-3.753 3.52-6.4 0-4.093-2.86-6.867-8.58-8.32l-12.67-3.07c-4.007-1.027-7.803-2.97-11.39-5.83-3.587-2.853-5.38-6.713-5.38-11.58 0-5.547 2.453-10.047 7.36-13.5 4.907-3.46 10.733-5.19 17.48-5.19 5.547 0 10.493 1.26 14.84 3.78 4.353 2.513 7.47 6.117 9.35 10.81l-10.24 4.23c-2.307-5.547-7.087-8.32-14.34-8.32-3.5 0-6.443.723-8.83 2.17-2.387 1.453-3.58 3.417-3.58 5.89 0 3.587 2.773 6.02 8.32 7.3l12.41 2.94c5.887 1.367 10.24 3.713 13.06 7.04 2.813 3.327 4.22 7.083 4.22 11.27 0 5.627-2.303 10.32-6.91 14.08-4.607 3.753-10.537 5.63-17.79 5.63zm56.96 0c-7 0-12.783-1.707-17.35-5.12-4.56-3.413-7.907-7.68-10.04-12.8l10.49-4.35c3.327 7.847 9.003 11.77 17.03 11.77 3.667 0 6.673-.81 9.02-2.43 2.347-1.62 3.52-3.753 3.52-6.4 0-4.093-2.86-6.867-8.58-8.32l-12.67-3.07c-4.007-1.027-7.803-2.97-11.39-5.83-3.587-2.853-5.38-6.713-5.38-11.58 0-5.547 2.453-10.047 7.36-13.5 4.907-3.46 10.733-5.19 17.48-5.19 5.547 0 10.493 1.26 14.84 3.78 4.353 2.513 7.47 6.117 9.35 10.81l-10.24 4.23c-2.307-5.547-7.087-8.32-14.34-8.32-3.5 0-6.443.723-8.83 2.17-2.387 1.453-3.58 3.417-3.58 5.89 0 3.587 2.773 6.02 8.32 7.3l12.41 2.94c5.887 1.367 10.24 3.713 13.06 7.04 2.813 3.327 4.22 7.083 4.22 11.27 0 5.627-2.303 10.32-6.91 14.08-4.607 3.753-10.537 5.63-17.79 5.63zm55.42 0c-6.653 0-12.22-1.92-16.7-5.76-4.48-3.84-6.72-8.917-6.72-15.23 0-6.827 2.643-12.183 7.93-16.07 5.293-3.88 11.823-5.82 19.59-5.82 6.913 0 12.587 1.28 17.02 3.84v-1.79c0-4.613-1.577-8.307-4.73-11.08-3.16-2.773-7.043-4.16-11.65-4.16-3.413 0-6.507.813-9.28 2.44-2.773 1.62-4.673 3.837-5.7 6.65l-10.75-4.61c1.453-3.753 4.313-7.23 8.58-10.43 4.267-3.2 9.897-4.8 16.89-4.8 8.02 0 14.677 2.347 19.97 7.04 5.293 4.693 7.94 11.307 7.94 19.84V272h-11.27v-8.7h-.51c-4.693 7.167-11.563 10.75-20.61 10.75zm1.92-10.75c4.867 0 9.283-1.813 13.25-5.44 3.967-3.627 5.95-7.917 5.95-12.87-3.327-2.727-8.317-4.09-14.97-4.09-5.72 0-10.03 1.237-12.93 3.71-2.9 2.473-4.35 5.373-4.35 8.7 0 3.073 1.32 5.507 3.96 7.3 2.647 1.793 5.677 2.69 9.09 2.69zm70.4 38.4c-7.42 0-13.477-1.857-18.17-5.57-4.693-3.713-8.067-7.96-10.12-12.74l10.76-4.48c1.193 3.413 3.39 6.273 6.59 8.58 3.2 2.3 6.847 3.45 10.94 3.45 6.487 0 11.587-1.94 15.3-5.82 3.713-3.88 5.57-9.15 5.57-15.81v-6.01h-.52c-2.047 3.067-4.947 5.627-8.7 7.68-3.753 2.047-7.977 3.07-12.67 3.07-8.107 0-15.103-3.2-20.99-9.6-5.893-6.4-8.84-14.337-8.84-23.81 0-9.473 2.947-17.41 8.84-23.81 5.887-6.4 12.883-9.6 20.99-9.6 4.693 0 8.917 1.023 12.67 3.07 3.753 2.053 6.653 4.613 8.7 7.68h.52v-8.7h11.26v59.52c0 10.753-3.113 18.923-9.34 24.51-6.233 5.593-13.83 8.39-22.79 8.39zm.9-38.4c5.547 0 10.26-2.05 14.14-6.15 3.887-4.093 5.83-9.597 5.83-16.51 0-6.913-1.943-12.417-5.83-16.51-3.88-4.1-8.593-6.15-14.14-6.15-5.46 0-10.153 2.07-14.08 6.21-3.927 4.14-5.89 9.623-5.89 16.45s1.963 12.31 5.89 16.45c3.927 4.14 8.62 6.21 14.08 6.21zm56.45-69.76c-1.627 1.62-3.59 2.43-5.89 2.43-2.307 0-4.27-.81-5.89-2.43-1.62-1.627-2.43-3.59-2.43-5.89 0-2.307.81-4.27 2.43-5.89s3.583-2.43 5.89-2.43c2.3 0 4.263.81 5.89 2.43 1.62 1.62 2.43 3.583 2.43 5.89 0 2.3-.81 4.263-2.43 5.89zm0 15.74V272h-11.78v-62.72zm14.08 0h11.26v8.7h.51c1.707-2.987 4.397-5.523 8.07-7.61 3.667-2.093 7.59-3.14 11.77-3.14 7.767 0 13.697 2.39 17.79 7.17 4.1 4.78 6.15 11.18 6.15 19.2V272h-11.78v-36.61c0-11.607-5.163-17.41-15.49-17.41-4.86 0-8.827 1.943-11.9 5.83-3.073 3.88-4.61 8.38-4.61 13.5V272h-11.77zm95.36 92.42c-7.427 0-13.487-1.857-18.18-5.57s-8.063-7.96-10.11-12.74l10.75-4.48c1.193 3.413 3.39 6.273 6.59 8.58 3.2 2.3 6.85 3.45 10.95 3.45 6.48 0 11.577-1.94 15.29-5.82 3.713-3.88 5.57-9.15 5.57-15.81v-6.01h-.51c-2.047 3.067-4.95 5.627-8.71 7.68-3.753 2.047-7.977 3.07-12.67 3.07-8.107 0-15.103-3.2-20.99-9.6-5.887-6.4-8.83-14.337-8.83-23.81 0-9.473 2.943-17.41 8.83-23.81 5.887-6.4 12.883-9.6 20.99-9.6 4.693 0 8.917 1.023 12.67 3.07 3.76 2.053 6.663 4.613 8.71 7.68h.51v-8.7h11.26v59.52c0 10.753-3.113 18.923-9.34 24.51-6.227 5.593-13.82 8.39-22.78 8.39zm.89-38.4c5.547 0 10.263-2.05 14.15-6.15 3.88-4.093 5.82-9.597 5.82-16.51 0-6.913-1.94-12.417-5.82-16.51-3.887-4.1-8.603-6.15-14.15-6.15-5.46 0-10.153 2.07-14.08 6.21-3.927 4.14-5.89 9.623-5.89 16.45s1.963 12.31 5.89 16.45c3.927 4.14 8.62 6.21 14.08 6.21z" fill-opacity=".54" fill="#000"/>
  </g>
</svg>
