<svg xmlns="http://www.w3.org/2000/svg" width="803.84" height="448">
  <defs>
    <clipPath id="a">
      <circle cx="192" cy="224" r="96" fill="none"/>
    </clipPath>
  </defs>
  <g fill="none">
    <path d="M0 0h803.84v448H0z"/>
    <g clip-path="url(#a)">
      <path fill="#ff8a65" d="M96 128h192v192H96z"/>
      <path d="M213 243.04c-3.547 0-6.72 1.4-9.147 3.593l-33.273-19.366c.233-1.074.42-2.147.42-3.267s-.187-2.193-.42-3.267l32.9-19.18c2.52 2.334 5.833 3.78 9.52 3.78 7.747 0 14-6.253 14-14 0-7.746-6.253-14-14-14s-14 6.254-14 14c0 1.12.187 2.194.42 3.267l-32.9 19.18C164 211.447 160.687 210 157 210c-7.747 0-14 6.253-14 14s6.253 14 14 14c3.687 0 7-1.447 9.52-3.78l33.227 19.413c-.234.98-.374 2.007-.374 3.034 0 7.513 6.114 13.626 13.627 13.626 7.513 0 13.627-6.113 13.627-13.626 0-7.514-6.114-13.627-13.627-13.627" fill="#fff" fill-rule="evenodd"/>
    </g>
    <path d="M347.77 272H336v-91.65h11.77zm13.83-62.72h11.26v8.7h.51c1.707-2.987 4.397-5.523 8.07-7.61 3.667-2.093 7.59-3.14 11.77-3.14 7.767 0 13.697 2.39 17.79 7.17 4.1 4.78 6.15 11.18 6.15 19.2V272h-11.78v-36.61c0-11.607-5.163-17.41-15.49-17.41-4.86 0-8.827 1.943-11.9 5.83-3.073 3.88-4.61 8.38-4.61 13.5V272H361.6zM458.88 272H447.1l-25.34-62.72h12.8l18.43 48.64h.25l18.69-48.64h12.55zm45.44-78.46c-1.627 1.62-3.59 2.43-5.89 2.43-2.307 0-4.27-.81-5.89-2.43-1.62-1.627-2.43-3.59-2.43-5.89 0-2.307.81-4.27 2.43-5.89s3.583-2.43 5.89-2.43c2.3 0 4.263.81 5.89 2.43 1.62 1.62 2.43 3.583 2.43 5.89 0 2.3-.81 4.263-2.43 5.89zm0 15.74V272h-11.78v-62.72zm39.93 63.74c-6.567 0-11.58-1.747-15.04-5.24-3.453-3.5-5.18-8.45-5.18-14.85v-32.9h-11.01v-10.75h11.01v-19.2h11.77v19.2h15.36v10.75H535.8v32c0 6.827 2.817 10.24 8.45 10.24 2.133 0 3.927-.34 5.38-1.02l4.09 10.11c-2.56 1.107-5.717 1.66-9.47 1.66zm44.67 1.03c-9.467 0-17.167-3.157-23.1-9.47-5.933-6.32-8.9-14.3-8.9-23.94 0-9.133 2.88-16.983 8.64-23.55 5.76-6.573 13.12-9.86 22.08-9.86 9.307 0 16.753 3.03 22.34 9.09 5.587 6.06 8.38 14.167 8.38 24.32l-.12 2.18H568.7c.34 6.313 2.453 11.303 6.34 14.97 3.88 3.673 8.423 5.51 13.63 5.51 8.447 0 14.163-3.587 17.15-10.76l10.5 4.36c-2.053 4.86-5.427 8.933-10.12 12.22-4.693 3.287-10.453 4.93-17.28 4.93zm-19.45-40.96h36.35c-.253-3.587-1.897-7-4.93-10.24-3.027-3.247-7.527-4.87-13.5-4.87-4.353 0-8.13 1.367-11.33 4.1-3.2 2.733-5.397 6.403-6.59 11.01zm81.66 40.96c-6.993 0-12.773-1.707-17.34-5.12-4.567-3.413-7.917-7.68-10.05-12.8l10.5-4.35c3.327 7.847 9 11.77 17.02 11.77 3.667 0 6.673-.81 9.02-2.43 2.347-1.62 3.52-3.753 3.52-6.4 0-4.093-2.857-6.867-8.57-8.32l-12.67-3.07c-4.013-1.027-7.813-2.97-11.4-5.83-3.58-2.853-5.37-6.713-5.37-11.58 0-5.547 2.453-10.047 7.36-13.5 4.907-3.46 10.73-5.19 17.47-5.19 5.547 0 10.497 1.26 14.85 3.78 4.353 2.513 7.467 6.117 9.34 10.81l-10.24 4.23c-2.3-5.547-7.077-8.32-14.33-8.32-3.5 0-6.447.723-8.84 2.17-2.387 1.453-3.58 3.417-3.58 5.89 0 3.587 2.773 6.02 8.32 7.3l12.42 2.94c5.887 1.367 10.237 3.713 13.05 7.04 2.82 3.327 4.23 7.083 4.23 11.27 0 5.627-2.307 10.32-6.92 14.08-4.607 3.753-10.537 5.63-17.79 5.63z" fill-opacity=".54" fill="#000"/>
  </g>
</svg>
