<svg xmlns="http://www.w3.org/2000/svg" width="800" height="448">
  <defs>
    <clipPath id="a">
      <circle cx="192" cy="224" r="96" fill="none"/>
    </clipPath>
  </defs>
  <g fill="none">
    <path d="M0 0h800v448H0z"/>
    <g clip-path="url(#a)">
      <path fill="#ffca28" d="M96 128h192v192H96z"/>
      <path d="M241.793 250.866h-26.366v-58.6a5.535 5.535 0 0 0-5.04-5.46 5.516 5.516 0 0 0-5.88 4.518l-20.814 41.706v-40.763a5.54 5.54 0 0 0-4.61-5.521 5.507 5.507 0 0 0-6.123 3.733l-31.36 62.837a5.969 5.969 0 0 0-.933 3.155 5.544 5.544 0 0 0 4.186 5.446 5.493 5.493 0 0 0 6.22-2.856l21.56-43.26v40.763c.056 2.52 1.792 4.69 4.228 5.273a5.488 5.488 0 0 0 6.132-2.776l21.374-42.84v40.203c.051 3.033 2.501 5.46 5.506 5.46h31.874a5.581 5.581 0 0 0 5.044-5.577c0-2.893-2.188-5.315-5.04-5.581l.047.14z" fill="#fff"/>
    </g>
    <path d="M347.77 272H336v-91.65h11.77l31.87 55.81h.52l31.87-55.81h11.77V272h-11.77v-54.4l.51-15.36h-.51l-28.67 50.3h-6.92l-28.67-50.3h-.51l.51 15.36zm145.92 0h-51.45v-91.65h11.77v80.39h39.68zm93.06-91.65h15.23v.51l-34.05 39.3 36.35 51.33v.51h-14.46L560 229.25l-14.08 16.25V272h-11.78v-91.65h11.78v47.23h.51zm35.84 13.19c-1.62 1.62-3.583 2.43-5.89 2.43-2.307 0-4.27-.81-5.89-2.43-1.62-1.627-2.43-3.59-2.43-5.89 0-2.307.81-4.27 2.43-5.89s3.583-2.43 5.89-2.43c2.307 0 4.27.81 5.89 2.43s2.43 3.583 2.43 5.89c0 2.3-.81 4.263-2.43 5.89zm0 15.74V272h-11.78v-62.72zm39.93 63.74c-6.567 0-11.58-1.747-15.04-5.24-3.453-3.5-5.18-8.45-5.18-14.85v-32.9h-11.01v-10.75h11.01v-19.2h11.78v19.2h15.36v10.75h-15.36v32c0 6.827 2.813 10.24 8.44 10.24 2.133 0 3.927-.34 5.38-1.02l4.1 10.11c-2.56 1.107-5.72 1.66-9.48 1.66z" fill-opacity=".54" fill="#000"/>
  </g>
</svg>
