<svg xmlns="http://www.w3.org/2000/svg" width="1793.79" height="448">
  <defs>
    <clipPath id="a">
      <circle cx="192" cy="224" r="96" fill="none"/>
    </clipPath>
  </defs>
  <g fill="none">
    <path d="M0 0h1793.79v448H0z"/>
    <g clip-path="url(#a)">
      <path fill="#ffa000" d="M96 128h192v192H96z"/>
      <path d="M192 177.333c25.667 0 46.667 21 46.667 46.667s-21 46.667-46.667 46.667-46.667-21-46.667-46.667 21-46.667 46.667-46.667zM216.733 252c7.467-7 12.6-16.8 12.6-28 0-20.533-16.8-37.333-37.333-37.333-20.533 0-37.333 16.8-37.333 37.333 0 11.2 5.133 21 12.6 28 6.533-5.6 14.933-9.333 24.733-9.333s18.2 3.733 24.733 9.333zm-48.066-42c2.8 0 4.666 1.867 4.666 4.667s-1.866 4.666-4.666 4.666c-2.8 0-4.667-1.866-4.667-4.666 0-2.8 1.867-4.667 4.667-4.667zm18.666-9.333c0 2.8-1.866 4.666-4.666 4.666-2.8 0-4.667-1.866-4.667-4.666 0-2.8 1.867-4.667 4.667-4.667s4.666 1.867 4.666 4.667zm28 9.333c2.8 0 4.667 1.867 4.667 4.667s-1.867 4.666-4.667 4.666-4.666-1.866-4.666-4.666c0-2.8 1.866-4.667 4.666-4.667zM197.4 198.156a4.667 4.667 0 0 1 8.475 3.584c-1.563 7.98-3.128 15.96-4.695 23.94a9.333 9.333 0 1 1-16.954-6.874z" fill="#fff" fill-rule="evenodd"/>
    </g>
    <path d="M347.77 234.88V272H336v-91.65h31.23c7.767 0 14.487 2.583 20.16 7.75 5.673 5.16 8.51 11.667 8.51 19.52 0 7.847-2.837 14.353-8.51 19.52-5.673 5.16-12.393 7.74-20.16 7.74zm0-43.26v32h19.71c4.953 0 8.923-1.667 11.91-5 2.987-3.327 4.48-6.993 4.48-11 0-4.013-1.493-7.683-4.48-11.01s-6.957-4.99-11.91-4.99zm82.31 82.43c-9.473 0-17.177-3.157-23.11-9.47-5.927-6.32-8.89-14.3-8.89-23.94 0-9.133 2.88-16.983 8.64-23.55 5.76-6.573 13.12-9.86 22.08-9.86 9.3 0 16.743 3.03 22.33 9.09 5.593 6.06 8.39 14.167 8.39 24.32l-.13 2.18h-49.54c.34 6.313 2.453 11.303 6.34 14.97 3.88 3.673 8.423 5.51 13.63 5.51 8.447 0 14.163-3.587 17.15-10.76l10.5 4.36c-2.047 4.86-5.417 8.933-10.11 12.22-4.693 3.287-10.453 4.93-17.28 4.93zm-19.46-40.96h36.35c-.253-3.587-1.897-7-4.93-10.24-3.027-3.247-7.527-4.87-13.5-4.87-4.353 0-8.13 1.367-11.33 4.1-3.2 2.733-5.397 6.403-6.59 11.01zm138.24-53.25c3.753 0 6.91.553 9.47 1.66l-4.09 10.12c-1.367-.687-3.16-1.03-5.38-1.03-3.073 0-5.59.917-7.55 2.75-1.967 1.84-2.95 4.507-2.95 8v7.94h16.39v10.75h-16.39V272h-11.77v-51.97h-11.78v-10.75h11.78v-8.32c0-6.4 2.047-11.52 6.14-15.36 4.1-3.84 9.477-5.76 16.13-5.76zm-78.59 29.44h11.26v10.24h.51c1.367-3.667 3.907-6.547 7.62-8.64 3.713-2.093 7.787-3.14 12.22-3.14 1.28 0 2.69.087 4.23.26v11.52a44.64 44.64 0 0 0-4.74-.26c-5.633 0-10.263 1.643-13.89 4.93-3.627 3.287-5.44 7.79-5.44 13.51V272h-11.77zm97.41 7.49c6.053-6.36 13.773-9.54 23.16-9.54s17.11 3.18 23.17 9.54c6.06 6.353 9.09 14.31 9.09 23.87s-3.03 17.517-9.09 23.87c-6.06 6.36-13.783 9.54-23.17 9.54-9.387 0-17.107-3.18-23.16-9.54-6.06-6.353-9.09-14.31-9.09-23.87s3.03-17.517 9.09-23.87zm8.76 40.32c4.053 4.14 8.853 6.21 14.4 6.21 5.547 0 10.347-2.07 14.4-6.21 4.053-4.14 6.08-9.623 6.08-16.45s-2.027-12.31-6.08-16.45c-4.053-4.14-8.853-6.21-14.4-6.21-5.547 0-10.347 2.07-14.4 6.21-4.053 4.14-6.08 9.623-6.08 16.45s2.027 12.31 6.08 16.45zm67.91-19.39V272h-11.78v-62.72h11.27v10.24h.51c1.193-3.413 3.647-6.23 7.36-8.45 3.713-2.22 7.317-3.33 10.81-3.33 3.5 0 6.447.513 8.84 1.54l-4.48 11.01c-1.54-.6-3.633-.9-6.28-.9-4.267 0-8.04 1.687-11.32 5.06-3.287 3.367-4.93 7.783-4.93 13.25zm45.18 34.3h-11.77v-62.72h11.26v8.7h.51c1.793-2.987 4.547-5.523 8.26-7.61 3.713-2.093 7.403-3.14 11.07-3.14 9.727 0 16.34 4.01 19.84 12.03 5.12-8.02 12.417-12.03 21.89-12.03 7.42 0 13.01 2.37 16.77 7.11 3.753 4.733 5.63 11.153 5.63 19.26V272h-11.78v-36.61c0-6.313-1.15-10.793-3.45-13.44-2.307-2.647-5.807-3.97-10.5-3.97-4.607 0-8.427 1.963-11.46 5.89-3.027 3.927-4.54 8.407-4.54 13.44V272h-11.78v-36.61c0-6.313-1.15-10.793-3.45-13.44-2.307-2.647-5.807-3.97-10.5-3.97-4.607 0-8.423 1.963-11.45 5.89-3.033 3.927-4.55 8.407-4.55 13.44zm116.48 2.05c-6.653 0-12.22-1.92-16.7-5.76-4.48-3.84-6.72-8.917-6.72-15.23 0-6.827 2.643-12.183 7.93-16.07 5.293-3.88 11.823-5.82 19.59-5.82 6.913 0 12.587 1.28 17.02 3.84v-1.79c0-4.613-1.577-8.307-4.73-11.08-3.16-2.773-7.043-4.16-11.65-4.16-3.413 0-6.507.813-9.28 2.44-2.773 1.62-4.673 3.837-5.7 6.65l-10.75-4.61c1.453-3.753 4.313-7.23 8.58-10.43 4.267-3.2 9.897-4.8 16.89-4.8 8.02 0 14.677 2.347 19.97 7.04 5.293 4.693 7.94 11.307 7.94 19.84V272h-11.27v-8.7h-.51c-4.693 7.167-11.563 10.75-20.61 10.75zm1.92-10.75c4.867 0 9.283-1.813 13.25-5.44 3.967-3.627 5.95-7.917 5.95-12.87-3.327-2.727-8.317-4.09-14.97-4.09-5.72 0-10.03 1.237-12.93 3.71-2.9 2.473-4.35 5.373-4.35 8.7 0 3.073 1.32 5.507 3.96 7.3 2.647 1.793 5.677 2.69 9.09 2.69zm42.5-54.02h11.26v8.7h.51c1.707-2.987 4.397-5.523 8.07-7.61 3.667-2.093 7.59-3.14 11.77-3.14 7.767 0 13.7 2.39 17.8 7.17 4.093 4.78 6.14 11.18 6.14 19.2V272H894.2v-36.61c0-11.607-5.16-17.41-15.48-17.41-4.867 0-8.837 1.943-11.91 5.83-3.073 3.88-4.61 8.38-4.61 13.5V272h-11.77zm96.77 64.77c-9.387 0-17.11-3.18-23.17-9.54-6.06-6.353-9.09-14.31-9.09-23.87s3.03-17.517 9.09-23.87c6.06-6.36 13.783-9.54 23.17-9.54 6.993 0 12.793 1.707 17.4 5.12 4.613 3.413 7.987 7.723 10.12 12.93l-10.76 4.48c-3.24-7.853-9.083-11.78-17.53-11.78-5.207 0-9.793 2.133-13.76 6.4-3.967 4.267-5.95 9.687-5.95 16.26 0 6.573 1.983 11.993 5.95 16.26 3.967 4.267 8.553 6.4 13.76 6.4 8.787 0 14.843-3.927 18.17-11.78l10.5 4.48c-2.133 5.12-5.567 9.407-10.3 12.86-4.74 3.46-10.607 5.19-17.6 5.19zm65.28 0c-9.473 0-17.177-3.157-23.11-9.47-5.927-6.32-8.89-14.3-8.89-23.94 0-9.133 2.88-16.983 8.64-23.55 5.76-6.573 13.12-9.86 22.08-9.86 9.3 0 16.743 3.03 22.33 9.09 5.593 6.06 8.39 14.167 8.39 24.32l-.13 2.18h-49.54c.34 6.313 2.453 11.303 6.34 14.97 3.88 3.673 8.423 5.51 13.63 5.51 8.447 0 14.163-3.587 17.15-10.76l10.5 4.36c-2.047 4.86-5.417 8.933-10.11 12.22-4.693 3.287-10.453 4.93-17.28 4.93zm-19.46-40.96h36.35c-.253-3.587-1.897-7-4.93-10.24-3.027-3.247-7.527-4.87-13.5-4.87-4.353 0-8.13 1.367-11.33 4.1-3.2 2.733-5.397 6.403-6.59 11.01zM1094.65 272h-11.77v-91.65h11.77l31.87 55.81h.52l31.87-55.81h11.77V272h-11.77v-54.4l.51-15.36h-.51l-28.67 50.3h-6.92l-28.67-50.3h-.51l.51 15.36zm97.92-55.23c6.06-6.36 13.783-9.54 23.17-9.54 9.387 0 17.11 3.18 23.17 9.54 6.06 6.353 9.09 14.31 9.09 23.87s-3.03 17.517-9.09 23.87c-6.06 6.36-13.783 9.54-23.17 9.54-9.387 0-17.11-3.18-23.17-9.54-6.06-6.353-9.09-14.31-9.09-23.87s3.03-17.517 9.09-23.87zm8.77 40.32c4.053 4.14 8.853 6.21 14.4 6.21 5.547 0 10.347-2.07 14.4-6.21 4.053-4.14 6.08-9.623 6.08-16.45s-2.027-12.31-6.08-16.45c-4.053-4.14-8.853-6.21-14.4-6.21-5.547 0-10.347 2.07-14.4 6.21-4.053 4.14-6.08 9.623-6.08 16.45s2.027 12.31 6.08 16.45zm56.13-47.81h11.26v8.7h.51c1.707-2.987 4.397-5.523 8.07-7.61 3.667-2.093 7.59-3.14 11.77-3.14 7.767 0 13.7 2.39 17.8 7.17 4.093 4.78 6.14 11.18 6.14 19.2V272h-11.78v-36.61c0-11.607-5.16-17.41-15.48-17.41-4.867 0-8.837 1.943-11.91 5.83-3.073 3.88-4.61 8.38-4.61 13.5V272h-11.77zm82.17-15.74c-1.62 1.62-3.58 2.43-5.88 2.43-2.307 0-4.27-.81-5.89-2.43-1.62-1.627-2.43-3.59-2.43-5.89 0-2.307.81-4.27 2.43-5.89s3.583-2.43 5.89-2.43c2.3 0 4.26.81 5.88 2.43 1.627 1.62 2.44 3.583 2.44 5.89 0 2.3-.813 4.263-2.44 5.89zm0 15.74V272h-11.77v-62.72zm39.94 63.74c-6.573 0-11.587-1.747-15.04-5.24-3.453-3.5-5.18-8.45-5.18-14.85v-32.9h-11.01v-10.75h11.01v-19.2h11.77v19.2h15.36v10.75h-15.36v32c0 6.827 2.817 10.24 8.45 10.24 2.133 0 3.927-.34 5.38-1.02l4.09 10.11c-2.56 1.107-5.717 1.66-9.47 1.66zm21.76-56.25c6.06-6.36 13.783-9.54 23.17-9.54 9.387 0 17.11 3.18 23.17 9.54 6.053 6.353 9.08 14.31 9.08 23.87s-3.027 17.517-9.08 23.87c-6.06 6.36-13.783 9.54-23.17 9.54-9.387 0-17.11-3.18-23.17-9.54-6.06-6.353-9.09-14.31-9.09-23.87s3.03-17.517 9.09-23.87zm8.77 40.32c4.053 4.14 8.853 6.21 14.4 6.21 5.547 0 10.347-2.07 14.4-6.21 4.053-4.14 6.08-9.623 6.08-16.45s-2.027-12.31-6.08-16.45c-4.053-4.14-8.853-6.21-14.4-6.21-5.547 0-10.347 2.07-14.4 6.21-4.053 4.14-6.08 9.623-6.08 16.45s2.027 12.31 6.08 16.45zm67.9-19.39V272h-11.77v-62.72h11.26v10.24h.51c1.193-3.413 3.647-6.23 7.36-8.45 3.713-2.22 7.32-3.33 10.82-3.33s6.443.513 8.83 1.54l-4.48 11.01c-1.533-.6-3.623-.9-6.27-.9-4.267 0-8.043 1.687-11.33 5.06-3.287 3.367-4.93 7.783-4.93 13.25zm46.21-44.16c-1.62 1.62-3.583 2.43-5.89 2.43-2.3 0-4.263-.81-5.89-2.43-1.62-1.627-2.43-3.59-2.43-5.89 0-2.307.81-4.27 2.43-5.89 1.627-1.62 3.59-2.43 5.89-2.43 2.307 0 4.27.81 5.89 2.43s2.43 3.583 2.43 5.89c0 2.3-.81 4.263-2.43 5.89zm0 15.74V272h-11.78v-62.72zm14.08 0h11.26v8.7h.52c1.707-2.987 4.393-5.523 8.06-7.61 3.667-2.093 7.593-3.14 11.78-3.14 7.76 0 13.69 2.39 17.79 7.17 4.093 4.78 6.14 11.18 6.14 19.2V272h-11.77v-36.61c0-11.607-5.163-17.41-15.49-17.41-4.867 0-8.837 1.943-11.91 5.83-3.067 3.88-4.6 8.38-4.6 13.5V272h-11.78zm95.36 92.42c-7.427 0-13.487-1.857-18.18-5.57s-8.063-7.96-10.11-12.74l10.75-4.48c1.2 3.413 3.4 6.273 6.6 8.58 3.2 2.3 6.847 3.45 10.94 3.45 6.487 0 11.587-1.94 15.3-5.82 3.707-3.88 5.56-9.15 5.56-15.81v-6.01h-.51c-2.047 3.067-4.947 5.627-8.7 7.68-3.753 2.047-7.977 3.07-12.67 3.07-8.107 0-15.107-3.2-21-9.6-5.887-6.4-8.83-14.337-8.83-23.81 0-9.473 2.943-17.41 8.83-23.81 5.893-6.4 12.893-9.6 21-9.6 4.693 0 8.917 1.023 12.67 3.07 3.753 2.053 6.653 4.613 8.7 7.68h.51v-8.7h11.27v59.52c0 10.753-3.117 18.923-9.35 24.51-6.227 5.593-13.82 8.39-22.78 8.39zm.9-38.4c5.547 0 10.26-2.05 14.14-6.15 3.88-4.093 5.82-9.597 5.82-16.51 0-6.913-1.94-12.417-5.82-16.51-3.88-4.1-8.593-6.15-14.14-6.15-5.467 0-10.16 2.07-14.08 6.21-3.927 4.14-5.89 9.623-5.89 16.45s1.963 12.31 5.89 16.45c3.92 4.14 8.613 6.21 14.08 6.21z" fill-opacity=".54" fill="#000"/>
  </g>
</svg>
