<svg xmlns="http://www.w3.org/2000/svg" width="1062.52" height="448">
  <defs>
    <clipPath id="a">
      <circle cx="192" cy="224" r="96" fill="none"/>
    </clipPath>
  </defs>
  <g fill="none">
    <path d="M0 0h1062.52v448H0z"/>
    <g clip-path="url(#a)">
      <path fill="#ff8a65" d="M96 128h192v192H96z"/>
      <path d="M171 194.133l11.667 6.534L176.133 189l6.534-11.667L171 183.867l-11.667-6.534L165.867 189l-6.534 11.667zm56 45.734l-11.667-6.534L221.867 245l-6.534 11.667L227 250.133l11.667 6.534L232.133 245l6.534-11.667zm11.667-62.534L227 183.867l-11.667-6.534L221.867 189l-6.534 11.667L227 194.133l11.667 6.534L232.133 189zM203.06 202.02a4.648 4.648 0 0 0-6.58 0l-54.46 54.46a4.648 4.648 0 0 0 0 6.58l10.92 10.92a4.647 4.647 0 0 0 6.58 0l54.413-54.413a4.648 4.648 0 0 0 0-6.58zm-4.807 25.62l-9.893-9.893 11.387-11.387 9.893 9.893z" fill="#fff"/>
    </g>
    <path d="M347.77 234.88V272H336v-91.65h31.23c7.767 0 14.487 2.583 20.16 7.75 5.673 5.16 8.51 11.667 8.51 19.52 0 7.847-2.837 14.353-8.51 19.52-5.673 5.16-12.393 7.74-20.16 7.74zm0-43.26v32h19.71c4.953 0 8.923-1.667 11.91-5 2.987-3.327 4.48-6.993 4.48-11 0-4.013-1.493-7.683-4.48-11.01s-6.957-4.99-11.91-4.99zm67.59 46.08V272h-11.78v-62.72h11.26v10.24h.52c1.193-3.413 3.647-6.23 7.36-8.45 3.707-2.22 7.31-3.33 10.81-3.33 3.5 0 6.443.513 8.83 1.54l-4.48 11.01c-1.533-.6-3.623-.9-6.27-.9-4.267 0-8.043 1.687-11.33 5.06-3.28 3.367-4.92 7.783-4.92 13.25zm59.26 36.35c-9.473 0-17.173-3.157-23.1-9.47-5.933-6.32-8.9-14.3-8.9-23.94 0-9.133 2.88-16.983 8.64-23.55 5.76-6.573 13.12-9.86 22.08-9.86 9.3 0 16.747 3.03 22.34 9.09 5.587 6.06 8.38 14.167 8.38 24.32l-.13 2.18H454.4c.34 6.313 2.45 11.303 6.33 14.97 3.887 3.673 8.43 5.51 13.63 5.51 8.453 0 14.173-3.587 17.16-10.76l10.49 4.36c-2.047 4.86-5.417 8.933-10.11 12.22-4.693 3.287-10.453 4.93-17.28 4.93zm-19.46-40.96h36.36c-.26-3.587-1.903-7-4.93-10.24-3.033-3.247-7.537-4.87-13.51-4.87-4.347 0-8.12 1.367-11.32 4.1-3.2 2.733-5.4 6.403-6.6 11.01zm85.25 40.96c-8.107 0-15.103-3.2-20.99-9.6-5.887-6.4-8.83-14.337-8.83-23.81 0-9.473 2.943-17.41 8.83-23.81 5.887-6.4 12.883-9.6 20.99-9.6 4.78 0 9.07 1.023 12.87 3.07 3.793 2.053 6.63 4.613 8.51 7.68h.51l-.51-8.7v-28.93h11.77V272H562.3v-8.7h-.51c-1.88 3.067-4.717 5.627-8.51 7.68-3.8 2.047-8.09 3.07-12.87 3.07zm1.92-10.75c5.547 0 10.263-2.05 14.15-6.15 3.88-4.093 5.82-9.597 5.82-16.51 0-6.913-1.94-12.417-5.82-16.51-3.887-4.1-8.603-6.15-14.15-6.15-5.46 0-10.153 2.07-14.08 6.21-3.927 4.14-5.89 9.623-5.89 16.45s1.963 12.31 5.89 16.45c3.927 4.14 8.62 6.21 14.08 6.21zm57.09-69.76c-1.62 1.62-3.583 2.43-5.89 2.43-2.3 0-4.263-.81-5.89-2.43-1.62-1.627-2.43-3.59-2.43-5.89 0-2.307.81-4.27 2.43-5.89 1.627-1.62 3.59-2.43 5.89-2.43 2.307 0 4.27.81 5.89 2.43s2.43 3.583 2.43 5.89c0 2.3-.81 4.263-2.43 5.89zm0 15.74V272h-11.78v-62.72zm42.11 64.77c-9.387 0-17.11-3.18-23.17-9.54-6.053-6.353-9.08-14.31-9.08-23.87s3.027-17.517 9.08-23.87c6.06-6.36 13.783-9.54 23.17-9.54 7 0 12.803 1.707 17.41 5.12 4.607 3.413 7.977 7.723 10.11 12.93l-10.75 4.48c-3.24-7.853-9.087-11.78-17.54-11.78-5.2 0-9.787 2.133-13.76 6.4-3.967 4.267-5.95 9.687-5.95 16.26 0 6.573 1.983 11.993 5.95 16.26 3.973 4.267 8.56 6.4 13.76 6.4 8.793 0 14.853-3.927 18.18-11.78l10.5 4.48c-2.133 5.12-5.57 9.407-10.31 12.86-4.733 3.46-10.6 5.19-17.6 5.19zm63.36-1.03c-6.567 0-11.58-1.747-15.04-5.24-3.453-3.5-5.18-8.45-5.18-14.85v-32.9h-11.01v-10.75h11.01v-19.2h11.77v19.2h15.36v10.75h-15.36v32c0 6.827 2.817 10.24 8.45 10.24 2.133 0 3.927-.34 5.38-1.02l4.09 10.11c-2.56 1.107-5.717 1.66-9.47 1.66zm29.7-79.48c-1.62 1.62-3.583 2.43-5.89 2.43-2.307 0-4.27-.81-5.89-2.43-1.62-1.627-2.43-3.59-2.43-5.89 0-2.307.81-4.27 2.43-5.89s3.583-2.43 5.89-2.43c2.307 0 4.27.81 5.89 2.43s2.43 3.583 2.43 5.89c0 2.3-.81 4.263-2.43 5.89zm0 15.74V272h-11.78v-62.72zm18.94 7.49c6.06-6.36 13.783-9.54 23.17-9.54 9.387 0 17.11 3.18 23.17 9.54 6.06 6.353 9.09 14.31 9.09 23.87s-3.03 17.517-9.09 23.87c-6.06 6.36-13.783 9.54-23.17 9.54-9.387 0-17.11-3.18-23.17-9.54-6.06-6.353-9.09-14.31-9.09-23.87s3.03-17.517 9.09-23.87zm8.77 40.32c4.053 4.14 8.853 6.21 14.4 6.21 5.547 0 10.347-2.07 14.4-6.21 4.053-4.14 6.08-9.623 6.08-16.45s-2.027-12.31-6.08-16.45c-4.053-4.14-8.853-6.21-14.4-6.21-5.547 0-10.347 2.07-14.4 6.21-4.053 4.14-6.08 9.623-6.08 16.45s2.027 12.31 6.08 16.45zm56.13-47.81h11.26v8.7h.51c1.707-2.987 4.397-5.523 8.07-7.61 3.667-2.093 7.59-3.14 11.77-3.14 7.767 0 13.7 2.39 17.8 7.17 4.093 4.78 6.14 11.18 6.14 19.2V272H862.2v-36.61c0-11.607-5.16-17.41-15.48-17.41-4.867 0-8.837 1.943-11.91 5.83-3.073 3.88-4.61 8.38-4.61 13.5V272h-11.77zm91.39 64.77c-7 0-12.78-1.707-17.34-5.12-4.567-3.413-7.917-7.68-10.05-12.8l10.49-4.35c3.333 7.847 9.01 11.77 17.03 11.77 3.667 0 6.673-.81 9.02-2.43 2.347-1.62 3.52-3.753 3.52-6.4 0-4.093-2.857-6.867-8.57-8.32l-12.68-3.07c-4.007-1.027-7.803-2.97-11.39-5.83-3.58-2.853-5.37-6.713-5.37-11.58 0-5.547 2.453-10.047 7.36-13.5 4.907-3.46 10.73-5.19 17.47-5.19 5.547 0 10.497 1.26 14.85 3.78 4.347 2.513 7.46 6.117 9.34 10.81l-10.24 4.23c-2.307-5.547-7.087-8.32-14.34-8.32-3.493 0-6.437.723-8.83 2.17-2.387 1.453-3.58 3.417-3.58 5.89 0 3.587 2.773 6.02 8.32 7.3l12.41 2.94c5.893 1.367 10.247 3.713 13.06 7.04 2.813 3.327 4.22 7.083 4.22 11.27 0 5.627-2.303 10.32-6.91 14.08-4.607 3.753-10.537 5.63-17.79 5.63z" fill-opacity=".54" fill="#000"/>
  </g>
</svg>
