<svg xmlns="http://www.w3.org/2000/svg" width="1480.96" height="448">
  <defs>
    <clipPath id="a">
      <circle cx="192" cy="224" r="96" fill="none"/>
    </clipPath>
  </defs>
  <g fill="none">
    <path d="M0 0h1480.96v448H0z"/>
    <g clip-path="url(#a)">
      <path fill="#ffca28" d="M96 128h192v192H96z"/>
      <path d="M150 238h84v18.676c0 5.152-4.167 9.324-9.31 9.324h-65.38c-5.143 0-9.31-4.19-9.31-9.324zm0-46.704c0-5.133 4.167-9.296 9.31-9.296h65.38c5.143 0 9.31 4.2 9.31 9.296v32.741c0 5.134-4.167 9.296-9.31 9.296h-65.38c-5.143 0-9.31-4.2-9.31-9.296zm9.333.037h65.334v14h-65.334zm0 25.69c0-1.306.999-2.356 2.357-2.356h4.62c1.307 0 2.357.998 2.357 2.356v4.62c0 1.307-.999 2.357-2.357 2.357h-4.62c-1.307 0-2.357-.999-2.357-2.357zm0 32.667c0-1.307.999-2.357 2.357-2.357h4.62c1.307 0 2.357.999 2.357 2.357v4.62c0 1.307-.999 2.357-2.357 2.357h-4.62c-1.307 0-2.357-.999-2.357-2.357z" fill="#fff" fill-rule="evenodd"/>
    </g>
    <path d="M347.77 272H336v-91.65h31.23c7.767 0 14.487 2.583 20.16 7.75 5.673 5.16 8.51 11.667 8.51 19.52 0 6.4-2.09 12.053-6.27 16.96s-9.387 8-15.62 9.28l-.25.38 25.72 37.25v.51h-13.95l-24.7-37.12h-13.06zm0-80.38v32.25h18.95c4.693 0 8.723-1.537 12.09-4.61 3.373-3.067 5.06-6.947 5.06-11.64 0-4.013-1.493-7.683-4.48-11.01s-6.957-4.99-11.91-4.99zm86.66 82.43c-9.473 0-17.177-3.157-23.11-9.47-5.927-6.32-8.89-14.3-8.89-23.94 0-9.133 2.88-16.983 8.64-23.55 5.76-6.573 13.12-9.86 22.08-9.86 9.3 0 16.743 3.03 22.33 9.09 5.593 6.06 8.39 14.167 8.39 24.32l-.13 2.18H414.2c.347 6.313 2.46 11.303 6.34 14.97 3.88 3.673 8.423 5.51 13.63 5.51 8.447 0 14.163-3.587 17.15-10.76l10.5 4.36c-2.047 4.86-5.417 8.933-10.11 12.22-4.693 3.287-10.453 4.93-17.28 4.93zm-19.46-40.96h36.35c-.253-3.587-1.893-7-4.92-10.24-3.033-3.247-7.537-4.87-13.51-4.87-4.353 0-8.13 1.367-11.33 4.1-3.2 2.733-5.397 6.403-6.59 11.01zm78.21 40.96c-6.653 0-12.22-1.92-16.7-5.76-4.48-3.84-6.72-8.917-6.72-15.23 0-6.827 2.643-12.183 7.93-16.07 5.293-3.88 11.823-5.82 19.59-5.82 6.907 0 12.58 1.28 17.02 3.84v-1.79c0-4.613-1.58-8.307-4.74-11.08-3.153-2.773-7.033-4.16-11.64-4.16-3.413 0-6.507.813-9.28 2.44-2.773 1.62-4.673 3.837-5.7 6.65l-10.75-4.61c1.447-3.753 4.303-7.23 8.57-10.43 4.267-3.2 9.9-4.8 16.9-4.8 8.02 0 14.677 2.347 19.97 7.04 5.287 4.693 7.93 11.307 7.93 19.84V272H514.3v-8.7h-.51c-4.693 7.167-11.563 10.75-20.61 10.75zm1.92-10.75c4.867 0 9.283-1.813 13.25-5.44 3.967-3.627 5.95-7.917 5.95-12.87-3.327-2.727-8.32-4.09-14.98-4.09-5.713 0-10.02 1.237-12.92 3.71-2.907 2.473-4.36 5.373-4.36 8.7 0 3.073 1.323 5.507 3.97 7.3 2.647 1.793 5.677 2.69 9.09 2.69zm54.91-82.95V272h-11.77v-91.65zm42.11 92.67c-6.567 0-11.58-1.747-15.04-5.24-3.453-3.5-5.18-8.45-5.18-14.85v-32.9h-11.01v-10.75h11.01v-19.2h11.78v19.2h15.36v10.75h-15.36v32c0 6.827 2.813 10.24 8.44 10.24 2.133 0 3.927-.34 5.38-1.02l4.1 10.11c-2.56 1.107-5.72 1.66-9.48 1.66zm29.7-79.48c-1.62 1.62-3.583 2.43-5.89 2.43-2.3 0-4.263-.81-5.89-2.43-1.62-1.627-2.43-3.59-2.43-5.89 0-2.307.81-4.27 2.43-5.89 1.627-1.62 3.59-2.43 5.89-2.43 2.307 0 4.27.81 5.89 2.43s2.43 3.583 2.43 5.89c0 2.3-.81 4.263-2.43 5.89zm0 15.74V272h-11.78v-62.72zM647.68 272H635.9v-62.72h11.26v8.7h.52c1.787-2.987 4.537-5.523 8.25-7.61 3.713-2.093 7.403-3.14 11.07-3.14 9.733 0 16.347 4.01 19.84 12.03 5.12-8.02 12.417-12.03 21.89-12.03 7.427 0 13.017 2.37 16.77 7.11 3.753 4.733 5.63 11.153 5.63 19.26V272h-11.77v-36.61c0-6.313-1.153-10.793-3.46-13.44-2.307-2.647-5.807-3.97-10.5-3.97-4.607 0-8.423 1.963-11.45 5.89-3.033 3.927-4.55 8.407-4.55 13.44V272h-11.77v-36.61c0-6.313-1.153-10.793-3.46-13.44-2.3-2.647-5.797-3.97-10.49-3.97-4.613 0-8.433 1.963-11.46 5.89-3.027 3.927-4.54 8.407-4.54 13.44zm124.41 2.05c-9.473 0-17.173-3.157-23.1-9.47-5.933-6.32-8.9-14.3-8.9-23.94 0-9.133 2.88-16.983 8.64-23.55 5.76-6.573 13.12-9.86 22.08-9.86 9.3 0 16.747 3.03 22.34 9.09 5.587 6.06 8.38 14.167 8.38 24.32l-.13 2.18h-49.53c.34 6.313 2.45 11.303 6.33 14.97 3.887 3.673 8.433 5.51 13.64 5.51 8.447 0 14.163-3.587 17.15-10.76l10.49 4.36c-2.047 4.86-5.417 8.933-10.11 12.22-4.693 3.287-10.453 4.93-17.28 4.93zm-19.45-40.96h36.35c-.26-3.587-1.903-7-4.93-10.24-3.027-3.247-7.527-4.87-13.5-4.87-4.353 0-8.13 1.367-11.33 4.1-3.2 2.733-5.397 6.403-6.59 11.01zM870.52 272h-28.03v-91.65h28.03c14.08 0 25.347 4.247 33.8 12.74 8.447 8.487 12.67 19.517 12.67 33.09 0 13.567-4.223 24.593-12.67 33.08-8.453 8.493-19.72 12.74-33.8 12.74zm-16.25-80.38v69.12h16.25c10.587 0 18.973-3.03 25.16-9.09 6.187-6.06 9.28-14.55 9.28-25.47 0-10.84-3.093-19.31-9.28-25.41-6.187-6.1-14.573-9.15-25.16-9.15zm94.46 82.43c-6.653 0-12.22-1.92-16.7-5.76-4.48-3.84-6.72-8.917-6.72-15.23 0-6.827 2.643-12.183 7.93-16.07 5.293-3.88 11.823-5.82 19.59-5.82 6.913 0 12.587 1.28 17.02 3.84v-1.79c0-4.613-1.577-8.307-4.73-11.08-3.16-2.773-7.043-4.16-11.65-4.16-3.413 0-6.507.813-9.28 2.44-2.773 1.62-4.673 3.837-5.7 6.65l-10.75-4.61c1.453-3.753 4.313-7.23 8.58-10.43 4.267-3.2 9.897-4.8 16.89-4.8 8.02 0 14.677 2.347 19.97 7.04 5.293 4.693 7.94 11.307 7.94 19.84V272h-11.27v-8.7h-.51c-4.693 7.167-11.563 10.75-20.61 10.75zm1.92-10.75c4.867 0 9.283-1.813 13.25-5.44 3.967-3.627 5.95-7.917 5.95-12.87-3.327-2.727-8.317-4.09-14.97-4.09-5.72 0-10.03 1.237-12.93 3.71-2.9 2.473-4.35 5.373-4.35 8.7 0 3.073 1.32 5.507 3.96 7.3 2.647 1.793 5.677 2.69 9.09 2.69zm67.71 9.72c-6.567 0-11.58-1.747-15.04-5.24-3.453-3.5-5.18-8.45-5.18-14.85v-32.9h-11.01v-10.75h11.01v-19.2h11.78v19.2h15.36v10.75h-15.36v32c0 6.827 2.813 10.24 8.44 10.24 2.133 0 3.927-.34 5.38-1.02l4.1 10.11c-2.56 1.107-5.72 1.66-9.48 1.66zm36.74 1.03c-6.653 0-12.22-1.92-16.7-5.76-4.48-3.84-6.72-8.917-6.72-15.23 0-6.827 2.643-12.183 7.93-16.07 5.293-3.88 11.823-5.82 19.59-5.82 6.907 0 12.58 1.28 17.02 3.84v-1.79c0-4.613-1.58-8.307-4.74-11.08-3.153-2.773-7.033-4.16-11.64-4.16-3.413 0-6.507.813-9.28 2.44-2.773 1.62-4.673 3.837-5.7 6.65l-10.75-4.61c1.447-3.753 4.303-7.23 8.57-10.43 4.267-3.2 9.9-4.8 16.9-4.8 8.02 0 14.677 2.347 19.97 7.04 5.287 4.693 7.93 11.307 7.93 19.84V272h-11.26v-8.7h-.51c-4.693 7.167-11.563 10.75-20.61 10.75zm1.92-10.75c4.867 0 9.283-1.813 13.25-5.44 3.967-3.627 5.95-7.917 5.95-12.87-3.327-2.727-8.32-4.09-14.98-4.09-5.713 0-10.02 1.237-12.92 3.71-2.907 2.473-4.36 5.373-4.36 8.7 0 3.073 1.323 5.507 3.97 7.3 2.647 1.793 5.677 2.69 9.09 2.69zm75.65 10.75c-4.78 0-9.07-1.023-12.87-3.07-3.793-2.053-6.63-4.613-8.51-7.68h-.51v8.7h-11.26v-91.65h11.77v28.93l-.51 8.7h.51c1.88-3.067 4.717-5.627 8.51-7.68 3.8-2.047 8.09-3.07 12.87-3.07 8.107 0 15.103 3.2 20.99 9.6 5.887 6.4 8.83 14.337 8.83 23.81 0 9.473-2.943 17.41-8.83 23.81-5.887 6.4-12.883 9.6-20.99 9.6zm-1.92-10.75c5.46 0 10.153-2.07 14.08-6.21 3.927-4.14 5.89-9.623 5.89-16.45s-1.963-12.31-5.89-16.45c-3.927-4.14-8.62-6.21-14.08-6.21-5.547 0-10.263 2.05-14.15 6.15-3.88 4.093-5.82 9.597-5.82 16.51 0 6.913 1.94 12.417 5.82 16.51 3.887 4.1 8.603 6.15 14.15 6.15zm61.69 10.75c-6.653 0-12.22-1.92-16.7-5.76-4.48-3.84-6.72-8.917-6.72-15.23 0-6.827 2.647-12.183 7.94-16.07 5.287-3.88 11.813-5.82 19.58-5.82 6.913 0 12.587 1.28 17.02 3.84v-1.79c0-4.613-1.577-8.307-4.73-11.08-3.16-2.773-7.043-4.16-11.65-4.16-3.413 0-6.507.813-9.28 2.44-2.773 1.62-4.673 3.837-5.7 6.65l-10.75-4.61c1.453-3.753 4.313-7.23 8.58-10.43 4.267-3.2 9.897-4.8 16.89-4.8 8.027 0 14.683 2.347 19.97 7.04 5.293 4.693 7.94 11.307 7.94 19.84V272h-11.27v-8.7h-.51c-4.693 7.167-11.563 10.75-20.61 10.75zm1.92-10.75c4.867 0 9.283-1.813 13.25-5.44 3.967-3.627 5.95-7.917 5.95-12.87-3.327-2.727-8.317-4.09-14.97-4.09-5.72 0-10.03 1.237-12.93 3.71-2.9 2.473-4.35 5.373-4.35 8.7 0 3.073 1.323 5.507 3.97 7.3 2.64 1.793 5.667 2.69 9.08 2.69zm65.16 10.75c-7 0-12.783-1.707-17.35-5.12-4.567-3.413-7.917-7.68-10.05-12.8l10.5-4.35c3.327 7.847 9 11.77 17.02 11.77 3.673 0 6.683-.81 9.03-2.43 2.347-1.62 3.52-3.753 3.52-6.4 0-4.093-2.86-6.867-8.58-8.32l-12.67-3.07c-4.013-1.027-7.81-2.97-11.39-5.83-3.587-2.853-5.38-6.713-5.38-11.58 0-5.547 2.453-10.047 7.36-13.5 4.907-3.46 10.73-5.19 17.47-5.19 5.547 0 10.497 1.26 14.85 3.78 4.353 2.513 7.47 6.117 9.35 10.81l-10.24 4.23c-2.307-5.547-7.087-8.32-14.34-8.32-3.5 0-6.443.723-8.83 2.17-2.393 1.453-3.59 3.417-3.59 5.89 0 3.587 2.773 6.02 8.32 7.3l12.42 2.94c5.887 1.367 10.24 3.713 13.06 7.04 2.813 3.327 4.22 7.083 4.22 11.27 0 5.627-2.303 10.32-6.91 14.08-4.607 3.753-10.537 5.63-17.79 5.63zm64 0c-9.473 0-17.177-3.157-23.11-9.47-5.927-6.32-8.89-14.3-8.89-23.94 0-9.133 2.88-16.983 8.64-23.55 5.76-6.573 13.12-9.86 22.08-9.86 9.3 0 16.743 3.03 22.33 9.09 5.593 6.06 8.39 14.167 8.39 24.32l-.13 2.18h-49.54c.34 6.313 2.453 11.303 6.34 14.97 3.88 3.673 8.423 5.51 13.63 5.51 8.447 0 14.163-3.587 17.15-10.76l10.5 4.36c-2.047 4.86-5.417 8.933-10.11 12.22-4.693 3.287-10.453 4.93-17.28 4.93zm-19.46-40.96h36.35c-.253-3.587-1.897-7-4.93-10.24-3.027-3.247-7.527-4.87-13.5-4.87-4.353 0-8.13 1.367-11.33 4.1-3.2 2.733-5.397 6.403-6.59 11.01z" fill-opacity=".54" fill="#000"/>
  </g>
</svg>
